<svg xmlns="http://www.w3.org/2000/svg" width="938.681480922821" height="1784.3047536597292" viewBox="-9.42999348057863 -1774.3047536597292 938.681480922821 1784.3047536597292"><title>Neo4j Graph Visualization</title><desc>Created using Neo4j (http://www.neo4j.com/)</desc><g class="layer links"><g class="link"><path fill="#DFE1E3" d="M 121.01419788297306 -1711.2519198448952 C 121.01419788297306 -1702.1674141540848 121.12896973341405 -1702.1674141540848 121.12896973341405 -1661.2519198448952 L 60.240587006310655 -1661.2519198448952 C 60.240587006310655 -1670.3364255357055 60.125815155869674 -1670.3364255357055 60.125815155869674 -1711.2519198448952 Z"/><text font-size="10" font-family="sans-serif" text-anchor="end" y="-1697.2519198448952" x="90.57000651942137">16,080 </text><text font-size="10" font-family="sans-serif" text-anchor="start" y="-1697.2519198448952" x="90.57000651942137">rows</text></g><g class="link"><path fill="#DFE1E3" d="M 93.79198833951021 -1608.199311078762 C 93.79198833951021 -1585.1774223823377 94.03937022953174 -1585.1774223823377 94.03937022953174 -1558.199311078762 L 87.824950290236 -1558.199311078762 C 87.824950290236 -1581.2211997751865 87.57756840021447 -1581.2211997751865 87.57756840021447 -1608.199311078762 Z"/><text font-size="10" font-family="sans-serif" text-anchor="end" y="-1594.199311078762" x="90.68477836986234">1 </text><text font-size="10" font-family="sans-serif" text-anchor="start" y="-1594.199311078762" x="90.68477836986234">row</text></g><g class="link"><path fill="#DFE1E3" d="M 98.25379016882748 -1532.2472901667677 C 98.25379016882748 -1499.2249810786575 98.662001688129 -1499.2249810786575 98.662001688129 -1456.8804832585645 L 84.01874187024178 -1456.8804832585645 C 84.01874187024178 -1489.9027923466747 83.61053035094027 -1489.9027923466747 83.61053035094027 -1532.2472901667677 Z"/><text font-size="10" font-family="sans-serif" text-anchor="end" y="-1518.2472901667677" x="90.93216025988387">7 </text><text font-size="10" font-family="sans-serif" text-anchor="start" y="-1518.2472901667677" x="90.93216025988387">rows</text></g><g class="link"><path fill="#DFE1E3" d="M 94.44758174883326 -1431.3547333669649 C 94.44758174883326 -1403.9330471483358 95.05556502916738 -1403.9330471483358 95.05556502916738 -1372.5551383225554 L 88.84114508987165 -1372.5551383225554 C 88.84114508987165 -1399.9768245411847 88.23316180953752 -1399.9768245411847 88.23316180953752 -1431.3547333669649 Z"/><text font-size="10" font-family="sans-serif" text-anchor="end" y="-1417.3547333669649" x="91.34037177918539">1 </text><text font-size="10" font-family="sans-serif" text-anchor="start" y="-1417.3547333669649" x="91.34037177918539">row</text></g><g class="link"><path fill="#DFE1E3" d="M 98.39541381220502 -1347.51265465577 C 98.39541381220502 -1313.478625980994 99.34753331284533 -1313.478625980994 99.34753331284533 -1271.2359471550676 L 86.45341580747431 -1271.2359471550676 C 86.45341580747431 -1305.2699758298436 85.501296306834 -1305.2699758298436 85.501296306834 -1347.51265465577 Z"/><text font-size="10" font-family="sans-serif" text-anchor="end" y="-1333.51265465577" x="91.94835505951951">5 </text><text font-size="10" font-family="sans-serif" text-anchor="start" y="-1333.51265465577" x="91.94835505951951">rows</text></g><g class="link"><path fill="#DFE1E3" d="M 98.79326459051195 -1246.7513534018706 C 98.79326459051195 -1206.7192163987984 100.80722839941578 -1206.7192163987984 100.80722839941578 -1159.1841461002607 L 89.02164833871151 -1159.1841461002607 C 89.02164833871151 -1199.216283103333 87.00768452980769 -1199.216283103333 87.00768452980769 -1246.7513534018706 Z"/><text font-size="10" font-family="sans-serif" text-anchor="end" y="-1232.7513534018706" x="92.90047456015982">4 </text><text font-size="10" font-family="sans-serif" text-anchor="start" y="-1232.7513534018706" x="92.90047456015982">rows</text></g><g class="link"><path fill="#DFE1E3" d="M 100.80722839941578 -1133.2321251882663 C 100.80722839941578 -1093.9337017645928 106.21888206190305 -1093.9337017645928 106.21888206190305 -1047.1323450454538 L 94.43330200119878 -1047.1323450454538 C 94.43330200119878 -1086.4307684691273 89.02164833871151 -1086.4307684691273 89.02164833871151 -1133.2321251882663 Z"/><text font-size="10" font-family="sans-serif" text-anchor="end" y="-1119.2321251882663" x="94.91443836906365">4 </text><text font-size="10" font-family="sans-serif" text-anchor="start" y="-1119.2321251882663" x="94.91443836906365">rows</text></g><g class="link"><path fill="#DFE1E3" d="M 106.21888206190305 -1023.3075950093203 C 106.21888206190305 -975.5383241545527 82.92644161283627 -975.5383241545527 82.92644161283627 -935.2719865952506 L 71.14086155213201 -935.2719865952506 C 71.14086155213201 -983.0412574500182 94.43330200119878 -983.0412574500182 94.43330200119878 -1023.3075950093203 Z"/><text font-size="10" font-family="sans-serif" text-anchor="end" y="-1009.3075950093203" x="100.32609203155091">4 </text><text font-size="10" font-family="sans-serif" text-anchor="start" y="-1009.3075950093203" x="100.32609203155091">rows</text></g><g class="link"><path fill="#DFE1E3" d="M 353.2666384692239 -1219.9167559875798 C 353.2666384692239 -1208.0046674655448 354.55784714735273 -1208.0046674655448 354.55784714735273 -1159.1841461002607 L 296.58221640942094 -1159.1841461002607 C 296.58221640942094 -1171.0962346222957 295.29100773129215 -1171.0962346222957 295.29100773129215 -1219.9167559875798 Z"/><text font-size="10" font-family="sans-serif" text-anchor="end" y="-1205.9167559875798" x="324.278823100258">9,959 </text><text font-size="10" font-family="sans-serif" text-anchor="start" y="-1205.9167559875798" x="324.278823100258">rows</text></g><g class="link"><path fill="#DFE1E3" d="M 363.4127328765574 -1097.1323450454538 C 363.4127328765574 -1088.0478393546434 368.1687931297215 -1088.0478393546434 368.1687931297215 -1047.1323450454538 L 292.4833909333803 -1047.1323450454538 C 292.4833909333803 -1056.2168507362642 287.7273306802162 -1056.2168507362642 287.7273306802162 -1097.1323450454538 Z"/><text font-size="10" font-family="sans-serif" text-anchor="end" y="-1083.1323450454538" x="325.5700317783868">183,333 </text><text font-size="10" font-family="sans-serif" text-anchor="start" y="-1083.1323450454538" x="325.5700317783868">rows</text></g><g class="link"><path fill="#DFE1E3" d="M 368.1687931297215 -985.2719865952507 C 368.1687931297215 -944.356492286061 158.6118438091775 -944.356492286061 158.6118438091775 -935.2719865952506 L 82.92644161283627 -935.2719865952506 C 82.92644161283627 -976.1874809044402 292.4833909333803 -976.1874809044402 292.4833909333803 -985.2719865952507 Z"/><text font-size="10" font-family="sans-serif" text-anchor="end" y="-971.2719865952507" x="330.3260920315509">183,333 </text><text font-size="10" font-family="sans-serif" text-anchor="start" y="-971.2719865952507" x="330.3260920315509">rows</text></g><g class="link"><path fill="#DFE1E3" d="M 130.35365371287787 -917.2719865952506 C 130.35365371287787 -898.1491319992518 277.0007223267707 -898.1491319992518 277.0007223267707 -859.3199656832562 L 246.04612026232442 -859.3199656832562 C 246.04612026232442 -878.442820279255 99.39905164843161 -878.442820279255 99.39905164843161 -917.2719865952506 Z"/><text font-size="10" font-family="sans-serif" text-anchor="end" y="-903.2719865952506" x="114.87635268065475">116 </text><text font-size="10" font-family="sans-serif" text-anchor="start" y="-903.2719865952506" x="114.87635268065475">rows</text></g><g class="link"><path fill="#DFE1E3" d="M 595.6084506687549 -1321.2359471550676 C 595.6084506687549 -1280.320452845878 593.8308550129889 -1280.320452845878 593.8308550129889 -1271.2359471550676 L 535.8552242750571 -1271.2359471550676 C 535.8552242750571 -1312.1514414642572 537.6328199308231 -1312.1514414642572 537.6328199308231 -1321.2359471550676 Z"/><text font-size="10" font-family="sans-serif" text-anchor="end" y="-1307.2359471550676" x="566.620635299789">9,959 </text><text font-size="10" font-family="sans-serif" text-anchor="start" y="-1307.2359471550676" x="566.620635299789">rows</text></g><g class="link"><path fill="#DFE1E3" d="M 602.6857407421937 -1209.1841461002607 C 602.6857407421937 -1168.268651791071 599.8559249312766 -1168.268651791071 599.8559249312766 -1159.1841461002607 L 524.1705227349354 -1159.1841461002607 C 524.1705227349354 -1200.0996404094503 527.0003385458524 -1200.0996404094503 527.0003385458524 -1209.1841461002607 Z"/><text font-size="10" font-family="sans-serif" text-anchor="end" y="-1195.1841461002607" x="564.8430396440231">183,333 </text><text font-size="10" font-family="sans-serif" text-anchor="start" y="-1195.1841461002607" x="564.8430396440231">rows</text></g><g class="link"><path fill="#DFE1E3" d="M 599.8559249312766 -1097.3237876500575 C 599.8559249312766 -1056.251633964884 572.4520193587181 -1056.251633964884 572.4520193587181 -1047.1323450454538 L 496.76661716237686 -1047.1323450454538 C 496.76661716237686 -1088.2044987306274 524.1705227349353 -1088.2044987306274 524.1705227349353 -1097.3237876500575 Z"/><text font-size="10" font-family="sans-serif" text-anchor="end" y="-1083.3237876500575" x="562.0132238331059">183,333 </text><text font-size="10" font-family="sans-serif" text-anchor="start" y="-1083.3237876500575" x="562.0132238331059">rows</text></g><g class="link"><path fill="#DFE1E3" d="M 832.6874306515124 -1609.9327286774073 C 832.6874306515124 -1567.5987616103614 832.0877954570909 -1567.5987616103614 832.0877954570909 -1558.199311078762 L 774.1121647191592 -1558.199311078762 C 774.1121647191592 -1600.533278145808 774.7117999135805 -1600.533278145808 774.7117999135805 -1609.9327286774073 Z"/><text font-size="10" font-family="sans-serif" text-anchor="end" y="-1595.9327286774073" x="803.6996152825465">9,959 </text><text font-size="10" font-family="sans-serif" text-anchor="start" y="-1595.9327286774073" x="803.6996152825465">rows</text></g><g class="link"><path fill="#DFE1E3" d="M 806.207190057773 -1506.8804832585647 C 806.207190057773 -1479.9023719549891 804.8815878861626 -1479.9023719549891 804.8815878861626 -1456.8804832585645 L 798.6671679468669 -1456.8804832585645 C 798.6671679468669 -1483.8585945621403 799.9927701184772 -1483.8585945621403 799.9927701184772 -1506.8804832585647 Z"/><text font-size="10" font-family="sans-serif" text-anchor="end" y="-1492.8804832585647" x="803.0999800881251">1 </text><text font-size="10" font-family="sans-serif" text-anchor="start" y="-1492.8804832585647" x="803.0999800881251">row</text></g><g class="link"><path fill="#DFE1E3" d="M 816.45407548259 -1422.5551383225554 C 816.45407548259 -1388.2097525996157 814.1820446736932 -1388.2097525996157 814.1820446736932 -1372.5551383225554 L 784.8226495415427 -1372.5551383225554 C 784.8226495415427 -1406.900524045495 787.0946803504396 -1406.900524045495 787.0946803504396 -1422.5551383225554 Z"/><text font-size="10" font-family="sans-serif" text-anchor="end" y="-1408.5551383225554" x="801.7743779165148">89 </text><text font-size="10" font-family="sans-serif" text-anchor="start" y="-1408.5551383225554" x="801.7743779165148">rows</text></g><g class="link"><path fill="#DFE1E3" d="M 814.1820446736931 -1338.2697840772278 C 814.1820446736931 -1295.407479893208 810.7935607198136 -1295.407479893208 810.7935607198136 -1271.2359471550676 L 781.4341655876631 -1271.2359471550676 C 781.4341655876631 -1314.0982513390873 784.8226495415427 -1314.0982513390873 784.8226495415427 -1338.2697840772278 Z"/><text font-size="10" font-family="sans-serif" text-anchor="end" y="-1324.2697840772278" x="799.5023471076179">89 </text><text font-size="10" font-family="sans-serif" text-anchor="start" y="-1324.2697840772278" x="799.5023471076179">rows</text></g><g class="link"><path fill="#DFE1E3" d="M 821.8306369247417 -1223.717590634784 C 821.8306369247417 -1175.0790617033977 817.7299976041094 -1175.0790617033977 817.7299976041094 -1159.1841461002607 L 766.2964500621025 -1159.1841461002607 C 766.2964500621025 -1207.8226750316471 770.3970893827349 -1207.8226750316471 770.3970893827349 -1223.717590634784 Z"/><text font-size="10" font-family="sans-serif" text-anchor="end" y="-1209.717590634784" x="796.1138631537383">3,395 </text><text font-size="10" font-family="sans-serif" text-anchor="start" y="-1209.717590634784" x="796.1138631537383">rows</text></g><g class="link"><path fill="#DFE1E3" d="M 817.7299976041094 -1141.1841461002607 C 817.7299976041094 -1077.7864389087324 623.8855669007249 -1077.7864389087324 623.8855669007249 -1047.1323450454538 L 572.4520193587181 -1047.1323450454538 C 572.4520193587181 -1110.5300522369819 766.2964500621025 -1110.5300522369819 766.2964500621025 -1141.1841461002607 Z"/><text font-size="10" font-family="sans-serif" text-anchor="end" y="-1127.1841461002607" x="792.0132238331059">3,395 </text><text font-size="10" font-family="sans-serif" text-anchor="start" y="-1127.1841461002607" x="792.0132238331059">rows</text></g><g class="link"><path fill="#DFE1E3" d="M 596.772314462845 -1029.1323450454538 C 596.772314462845 -958.9997799924835 381.3225751119489 -958.9997799924835 381.3225751119489 -935.2719865952506 L 308.4301302493607 -935.2719865952506 C 308.4301302493607 -1005.404551648221 523.8798696002567 -1005.404551648221 523.8798696002567 -1029.1323450454538 Z"/><text font-size="10" font-family="sans-serif" text-anchor="end" y="-1015.1323450454538" x="560.3260920315508">115,809 </text><text font-size="10" font-family="sans-serif" text-anchor="start" y="-1015.1323450454538" x="560.3260920315508">rows</text></g><g class="link"><path fill="#DFE1E3" d="M 381.3225751119488 -917.2719865952506 C 381.3225751119488 -869.8492749586358 349.8931671893589 -869.8492749586358 349.8931671893589 -859.3199656832562 L 277.0007223267707 -859.3199656832562 C 277.0007223267707 -906.7426773198711 308.4301302493607 -906.7426773198711 308.4301302493607 -917.2719865952506 Z"/><text font-size="10" font-family="sans-serif" text-anchor="end" y="-903.2719865952506" x="344.87635268065475">115,809 </text><text font-size="10" font-family="sans-serif" text-anchor="start" y="-903.2719865952506" x="344.87635268065475">rows</text></g><g class="link"><path fill="#DFE1E3" d="M 313.5491413180568 -841.3199656832562 C 313.5491413180568 -819.9110404778555 351.20817103672846 -819.9110404778555 351.20817103672846 -778.6656828509405 L 320.04917585229816 -778.6656828509405 C 320.04917585229816 -800.074608056341 282.3901461336265 -800.074608056341 282.3901461336265 -841.3199656832562 Z"/><text font-size="10" font-family="sans-serif" text-anchor="end" y="-827.3199656832562" x="297.96964372584165">120 </text><text font-size="10" font-family="sans-serif" text-anchor="start" y="-827.3199656832562" x="297.96964372584165">rows</text></g><g class="link"><path fill="#DFE1E3" d="M 351.20817103672846 -760.6656828509405 C 351.20817103672846 -739.4905740704521 406.4770009951842 -739.4905740704521 406.4770009951842 -698.4790328684492 L 375.3180058107539 -698.4790328684492 C 375.3180058107539 -719.6541416489376 320.04917585229816 -719.6541416489376 320.04917585229816 -760.6656828509405 Z"/><text font-size="10" font-family="sans-serif" text-anchor="end" y="-746.6656828509405" x="335.6286734445133">120 </text><text font-size="10" font-family="sans-serif" text-anchor="start" y="-746.6656828509405" x="335.6286734445133">rows</text></g><g class="link"><path fill="#DFE1E3" d="M 396.7902934333212 -680.4790328684492 C 396.7902934333212 -659.2304995161819 458.8666640358284 -659.2304995161819 458.8666640358284 -630.4790328684492 L 447.08108397512416 -630.4790328684492 C 447.08108397512416 -651.7275662207164 385.0047133726169 -651.7275662207164 385.0047133726169 -680.4790328684492 Z"/><text font-size="10" font-family="sans-serif" text-anchor="end" y="-666.4790328684492" x="390.89750340296905">4 </text><text font-size="10" font-family="sans-serif" text-anchor="start" y="-666.4790328684492" x="390.89750340296905">rows</text></g><g class="link"><path fill="#DFE1E3" d="M 796.218882061903 -1029.1323450454538 C 796.218882061903 -978.4506991726195 580.7691427110069 -978.4506991726195 580.7691427110069 -935.2719865952506 L 568.9835626503026 -935.2719865952506 C 568.9835626503026 -985.953632468085 784.4333020011987 -985.953632468085 784.4333020011987 -1029.1323450454538 Z"/><text font-size="10" font-family="sans-serif" text-anchor="end" y="-1015.1323450454538" x="790.3260920315508">4 </text><text font-size="10" font-family="sans-serif" text-anchor="start" y="-1015.1323450454538" x="790.3260920315508">rows</text></g><g class="link"><path fill="#DFE1E3" d="M 580.7691427110068 -909.3199656832562 C 580.7691427110068 -880.5684990355235 579.932724792874 -880.5684990355235 579.932724792874 -859.3199656832562 L 568.1471447321696 -859.3199656832562 C 568.1471447321696 -888.071432330989 568.9835626503026 -888.071432330989 568.9835626503026 -909.3199656832562 Z"/><text font-size="10" font-family="sans-serif" text-anchor="end" y="-895.3199656832562" x="574.8763526806547">4 </text><text font-size="10" font-family="sans-serif" text-anchor="start" y="-895.3199656832562" x="574.8763526806547">rows</text></g><g class="link"><path fill="#DFE1E3" d="M 585.2767207478146 -828.6656828509405 C 585.2767207478146 -810.8192429870408 600.1857388824257 -810.8192429870408 600.1857388824257 -778.6656828509405 L 577.7121669118403 -778.6656828509405 C 577.7121669118403 -796.5121227148402 562.8031487772291 -796.5121227148402 562.8031487772291 -828.6656828509405 Z"/><text font-size="10" font-family="sans-serif" text-anchor="end" y="-814.6656828509405" x="574.0399347625219">28 </text><text font-size="10" font-family="sans-serif" text-anchor="start" y="-814.6656828509405" x="574.0399347625219">rows</text></g><g class="link"><path fill="#DFE1E3" d="M 594.8417429274851 -748.4790328684492 C 594.8417429274851 -727.2304995161819 625.7902934333213 -727.2304995161819 625.7902934333213 -698.4790328684492 L 614.004713372617 -698.4790328684492 C 614.004713372617 -719.7275662207164 583.0561628667809 -719.7275662207164 583.0561628667809 -748.4790328684492 Z"/><text font-size="10" font-family="sans-serif" text-anchor="end" y="-734.4790328684492" x="588.948952897133">4 </text><text font-size="10" font-family="sans-serif" text-anchor="start" y="-734.4790328684492" x="588.948952897133">rows</text></g><g class="link"><path fill="#DFE1E3" d="M 835.1442774725945 -917.2719865952506 C 835.1442774725945 -884.5445094915207 824.4178493907435 -884.5445094915207 824.4178493907435 -859.3199656832562 L 812.6322693300392 -859.3199656832562 C 812.6322693300392 -892.0474427869862 823.3586974118903 -892.0474427869862 823.3586974118903 -917.2719865952506 Z"/><text font-size="10" font-family="sans-serif" text-anchor="end" y="-903.2719865952506" x="829.2514874422424">4 </text><text font-size="10" font-family="sans-serif" text-anchor="start" y="-903.2719865952506" x="829.2514874422424">rows</text></g><g class="link"><path fill="#DFE1E3" d="M 824.4178493907434 -833.3679447712618 C 824.4178493907434 -809.7682804588339 824.8417429274853 -809.7682804588339 824.8417429274853 -778.6656828509405 L 813.0561628667809 -778.6656828509405 C 813.0561628667809 -802.2653471633685 812.6322693300392 -802.2653471633685 812.6322693300392 -833.3679447712618 Z"/><text font-size="10" font-family="sans-serif" text-anchor="end" y="-819.3679447712618" x="818.5250593603913">4 </text><text font-size="10" font-family="sans-serif" text-anchor="start" y="-819.3679447712618" x="818.5250593603913">rows</text></g><g class="link"><path fill="#DFE1E3" d="M 819.948952897133 -750.4119418394548 C 819.948952897133 -723.8088675815844 627.7902934333212 -723.8088675815844 627.7902934333212 -698.4790328684492 L 625.7902934333212 -698.4790328684492 C 625.7902934333212 -725.0821071263196 817.948952897133 -725.0821071263196 817.948952897133 -750.4119418394548 Z"/><text font-size="10" font-family="sans-serif" text-anchor="end" y="-736.4119418394548" x="818.948952897133">0 </text><text font-size="10" font-family="sans-serif" text-anchor="start" y="-736.4119418394548" x="818.948952897133">rows</text></g><g class="link"><path fill="#DFE1E3" d="M 626.7902934333212 -680.4790328684492 C 626.7902934333212 -651.7275662207164 470.6522440965327 -651.7275662207164 470.6522440965327 -630.4790328684492 L 458.8666640358284 -630.4790328684492 C 458.8666640358284 -659.2304995161819 615.004713372617 -659.2304995161819 615.004713372617 -680.4790328684492 Z"/><text font-size="10" font-family="sans-serif" text-anchor="end" y="-666.4790328684492" x="620.897503402969">4 </text><text font-size="10" font-family="sans-serif" text-anchor="start" y="-666.4790328684492" x="620.897503402969">rows</text></g><g class="link"><path fill="#DFE1E3" d="M 464.7594540661806 -612.4790328684492 C 464.7594540661806 -583.7275662207164 424.5658709360444 -583.7275662207164 424.5658709360444 -562.4790328684492 L 412.78029087534014 -562.4790328684492 C 412.78029087534014 -591.2304995161819 452.97387400547626 -591.2304995161819 452.97387400547626 -612.4790328684492 Z"/><text font-size="10" font-family="sans-serif" text-anchor="end" y="-598.4790328684492" x="458.8666640358284">4 </text><text font-size="10" font-family="sans-serif" text-anchor="start" y="-598.4790328684492" x="458.8666640358284">rows</text></g><g class="link"><path fill="#DFE1E3" d="M 424.56587093604446 -531.8247500361334 C 424.56587093604446 -503.0732833884007 387.51068157701997 -503.0732833884007 387.51068157701997 -481.8247500361335 L 375.7251015163157 -481.8247500361335 C 375.7251015163157 -510.57621668386616 412.78029087534014 -510.57621668386616 412.78029087534014 -531.8247500361334 Z"/><text font-size="10" font-family="sans-serif" text-anchor="end" y="-517.8247500361334" x="418.6730809056923">4 </text><text font-size="10" font-family="sans-serif" text-anchor="start" y="-517.8247500361334" x="418.6730809056923">rows</text></g><g class="link"><path fill="#DFE1E3" d="M 387.51068157701997 -463.8247500361335 C 387.51068157701997 -435.07328338840074 353.1901461933673 -435.07328338840074 353.1901461933673 -413.8247500361335 L 341.40456613266304 -413.8247500361335 C 341.40456613266304 -442.5762166838662 375.72510151631565 -442.5762166838662 375.72510151631565 -463.8247500361335 Z"/><text font-size="10" font-family="sans-serif" text-anchor="end" y="-449.8247500361335" x="381.6178915466678">4 </text><text font-size="10" font-family="sans-serif" text-anchor="start" y="-449.8247500361335" x="381.6178915466678">rows</text></g><g class="link"><path fill="#DFE1E3" d="M 353.1901461933673 -390 C 353.1901461933673 -361.24853335226726 322.70694920787076 -361.24853335226726 322.70694920787076 -340 L 310.9213691471665 -340 C 310.9213691471665 -368.75146664773274 341.404566132663 -368.75146664773274 341.404566132663 -390 Z"/><text font-size="10" font-family="sans-serif" text-anchor="end" y="-376" x="347.29735616301514">4 </text><text font-size="10" font-family="sans-serif" text-anchor="start" y="-376" x="347.29735616301514">rows</text></g><g class="link"><path fill="#DFE1E3" d="M 322.70694920787076 -322 C 322.70694920787076 -293.24853335226726 297.24547268723364 -293.24853335226726 297.24547268723364 -272 L 285.4598926265294 -272 C 285.4598926265294 -300.75146664773274 310.92136914716644 -300.75146664773274 310.92136914716644 -322 Z"/><text font-size="10" font-family="sans-serif" text-anchor="end" y="-308" x="316.8141591775186">4 </text><text font-size="10" font-family="sans-serif" text-anchor="start" y="-308" x="316.8141591775186">rows</text></g><g class="link"><path fill="#DFE1E3" d="M 297.2454726872337 -254 C 297.2454726872337 -225.24853335226726 277.6342480882999 -225.24853335226726 277.6342480882999 -204 L 265.84866802759564 -204 C 265.84866802759564 -232.75146664773274 285.4598926265294 -232.75146664773274 285.4598926265294 -254 Z"/><text font-size="10" font-family="sans-serif" text-anchor="end" y="-240" x="291.35268265688154">4 </text><text font-size="10" font-family="sans-serif" text-anchor="start" y="-240" x="291.35268265688154">rows</text></g><g class="link"><path fill="#DFE1E3" d="M 277.6342480882999 -186 C 277.6342480882999 -157.24853335226726 264.3742197270548 -157.24853335226726 264.3742197270548 -136 L 252.58863966635053 -136 C 252.58863966635053 -164.75146664773274 265.8486680275956 -164.75146664773274 265.8486680275956 -186 Z"/><text font-size="10" font-family="sans-serif" text-anchor="end" y="-172" x="271.74145805794774">4 </text><text font-size="10" font-family="sans-serif" text-anchor="start" y="-172" x="271.74145805794774">rows</text></g><g class="link"><path fill="#DFE1E3" d="M 264.3742197270548 -118 C 264.3742197270548 -89.24853335226727 257.7240717256793 -89.24853335226727 257.7240717256793 -68 L 245.93849166497506 -68 C 245.93849166497506 -96.75146664773273 252.58863966635053 -96.75146664773273 252.58863966635053 -118 Z"/><text font-size="10" font-family="sans-serif" text-anchor="end" y="-104" x="258.48142969670266">4 </text><text font-size="10" font-family="sans-serif" text-anchor="start" y="-104" x="258.48142969670266">rows</text></g></g><g class="layer operators"><g class="operator" transform="translate(161.83128356933594,-68)"><rect class="background" fill="#ffffff" ry="4" rx="4" height="18" width="180"/><g class="header" pointer-events="all"><path class="banner" d="M 176 0 A 4 4 0 0 1 180 4 L 180 14 A 4 4 0 0 1 176 18 L 4 18 A 4 4 0 0 1 0 14 L 0 4 A 4 4 0 0 1 4 0 Z" style="fill: rgb(198, 219, 239);"/><text class="title" font-size="11" font-family="sans-serif" x="18" y="13" fill="#000000">Result</text></g><path class="cost" fill="#F25A29" d="M 176 18 A 4 4 0 0 1 176 18 L 4 18 A 4 4 0 0 1 4 18 Z"/><rect class="outline" stroke-width="1" fill="none" ry="4" rx="4" height="18" width="180" style="stroke: rgb(138, 153, 167);"/></g><g class="operator" transform="translate(168.48143005371094,-136)"><rect class="background" fill="#ffffff" ry="4" rx="4" height="18" width="180"/><g class="header" pointer-events="all"><path class="banner" d="M 176 0 A 4 4 0 0 1 180 4 L 180 14 A 4 4 0 0 1 176 18 L 4 18 A 4 4 0 0 1 0 14 L 0 4 A 4 4 0 0 1 4 0 Z" style="fill: rgb(198, 219, 239);"/><path class="expand" fill="#000000" d="M -5 -10 L 8.66 0 L -5 10 Z" transform="translate(9, 9) rotate(0) scale(0.5)"/><text class="title" font-size="11" font-family="sans-serif" x="18" y="13" fill="#000000">ProduceResults</text></g><path class="cost" fill="#F25A29" d="M 176 18 A 4 4 0 0 1 176 18 L 4 18 A 4 4 0 0 1 4 18 Z"/><rect class="outline" stroke-width="1" fill="none" ry="4" rx="4" height="18" width="180" style="stroke: rgb(138, 153, 167);"/></g><g class="operator" transform="translate(181.741455078125,-204)"><rect class="background" fill="#ffffff" ry="4" rx="4" height="18" width="180"/><g class="header" pointer-events="all"><path class="banner" d="M 176 0 A 4 4 0 0 1 180 4 L 180 14 A 4 4 0 0 1 176 18 L 4 18 A 4 4 0 0 1 0 14 L 0 4 A 4 4 0 0 1 4 0 Z" style="fill: rgb(107, 174, 214);"/><path class="expand" fill="#FFFFFF" d="M -5 -10 L 8.66 0 L -5 10 Z" transform="translate(9, 9) rotate(0) scale(0.5)"/><text class="title" font-size="11" font-family="sans-serif" x="18" y="13" fill="#FFFFFF">Projection</text></g><path class="cost" fill="#F25A29" d="M 176 18 A 4 4 0 0 1 176 18 L 4 18 A 4 4 0 0 1 4 18 Z"/><rect class="outline" stroke-width="1" fill="none" ry="4" rx="4" height="18" width="180" style="stroke: rgb(74, 121, 149);"/></g><g class="operator" transform="translate(201.35267639160156,-272)"><rect class="background" fill="#ffffff" ry="4" rx="4" height="18" width="180"/><g class="header" pointer-events="all"><path class="banner" d="M 176 0 A 4 4 0 0 1 180 4 L 180 14 A 4 4 0 0 1 176 18 L 4 18 A 4 4 0 0 1 0 14 L 0 4 A 4 4 0 0 1 4 0 Z" style="fill: rgb(107, 174, 214);"/><path class="expand" fill="#FFFFFF" d="M -5 -10 L 8.66 0 L -5 10 Z" transform="translate(9, 9) rotate(0) scale(0.5)"/><text class="title" font-size="11" font-family="sans-serif" x="18" y="13" fill="#FFFFFF">Top</text></g><path class="cost" fill="#F25A29" d="M 176 18 A 4 4 0 0 1 176 18 L 4 18 A 4 4 0 0 1 4 18 Z"/><rect class="outline" stroke-width="1" fill="none" ry="4" rx="4" height="18" width="180" style="stroke: rgb(74, 121, 149);"/></g><g class="operator" transform="translate(226.8141632080078,-340)"><rect class="background" fill="#ffffff" ry="4" rx="4" height="18" width="180"/><g class="header" pointer-events="all"><path class="banner" d="M 176 0 A 4 4 0 0 1 180 4 L 180 14 A 4 4 0 0 1 176 18 L 4 18 A 4 4 0 0 1 0 14 L 0 4 A 4 4 0 0 1 4 0 Z" style="fill: rgb(8, 48, 107);"/><path class="expand" fill="#FFFFFF" d="M -5 -10 L 8.66 0 L -5 10 Z" transform="translate(9, 9) rotate(0) scale(0.5)"/><text class="title" font-size="11" font-family="sans-serif" x="18" y="13" fill="#FFFFFF">EagerAggregation</text></g><path class="cost" fill="#F25A29" d="M 176 18 A 4 4 0 0 1 176 18 L 4 18 A 4 4 0 0 1 4 18 Z"/><rect class="outline" stroke-width="1" fill="none" ry="4" rx="4" height="18" width="180" style="stroke: rgb(5, 33, 74);"/></g><g class="operator" transform="translate(257.29736328125,-413.8247375488281)"><rect class="background" fill="#ffffff" ry="4" rx="4" height="23.82475003613349" width="180"/><g class="header" pointer-events="all"><path class="banner" d="M 176 0 A 4 4 0 0 1 180 4 L 180 14 A 4 4 0 0 1 180 18 L 0 18 A 4 4 0 0 1 0 14 L 0 4 A 4 4 0 0 1 4 0 Z" style="fill: rgb(107, 174, 214);"/><path class="expand" fill="#FFFFFF" d="M -5 -10 L 8.66 0 L -5 10 Z" transform="translate(9, 9) rotate(0) scale(0.5)"/><text class="title" font-size="11" font-family="sans-serif" x="18" y="13" fill="#FFFFFF">Projection</text></g><path class="cost" fill="#F25A29" d="M 0 18 L 180 18 L 180 19.82475003613349 A 4 4 0 0 1 176 23.82475003613349 L 4 23.82475003613349 A 4 4 0 0 1 0 19.82475003613349 Z"/><rect class="outline" stroke-width="1" fill="none" ry="4" rx="4" height="23.82475003613349" width="180" style="stroke: rgb(74, 121, 149);"/></g><g class="operator" transform="translate(291.6178894042969,-481.8247375488281)"><rect class="background" fill="#ffffff" ry="4" rx="4" height="18" width="180"/><g class="header" pointer-events="all"><path class="banner" d="M 176 0 A 4 4 0 0 1 180 4 L 180 14 A 4 4 0 0 1 176 18 L 4 18 A 4 4 0 0 1 0 14 L 0 4 A 4 4 0 0 1 4 0 Z" style="fill: rgb(33, 113, 181);"/><path class="expand" fill="#FFFFFF" d="M -5 -10 L 8.66 0 L -5 10 Z" transform="translate(9, 9) rotate(0) scale(0.5)"/><text class="title" font-size="11" font-family="sans-serif" x="18" y="13" fill="#FFFFFF">Filter</text></g><path class="cost" fill="#F25A29" d="M 176 18 A 4 4 0 0 1 176 18 L 4 18 A 4 4 0 0 1 4 18 Z"/><rect class="outline" stroke-width="1" fill="none" ry="4" rx="4" height="18" width="180" style="stroke: rgb(23, 79, 126);"/></g><g class="operator" transform="translate(328.673095703125,-562.47900390625)"><rect class="background" fill="#ffffff" ry="4" rx="4" height="30.65428283231573" width="180"/><g class="header" pointer-events="all"><path class="banner" d="M 176 0 A 4 4 0 0 1 180 4 L 180 14 A 4 4 0 0 1 180 18 L 0 18 A 4 4 0 0 1 0 14 L 0 4 A 4 4 0 0 1 4 0 Z" style="fill: rgb(8, 81, 156);"/><path class="expand" fill="#FFFFFF" d="M -5 -10 L 8.66 0 L -5 10 Z" transform="translate(9, 9) rotate(0) scale(0.5)"/><text class="title" font-size="11" font-family="sans-serif" x="18" y="13" fill="#FFFFFF">Expand(Into)</text></g><path class="cost" fill="#F25A29" d="M 0 18 L 180 18 L 180 26.65428283231573 A 4 4 0 0 1 176 30.65428283231573 L 4 30.65428283231573 A 4 4 0 0 1 0 26.65428283231573 Z"/><rect class="outline" stroke-width="1" fill="none" ry="4" rx="4" height="30.65428283231573" width="180" style="stroke: rgb(5, 56, 109);"/></g><g class="operator" transform="translate(368.8666687011719,-630.47900390625)"><rect class="background" fill="#ffffff" ry="4" rx="4" height="18" width="180"/><g class="header" pointer-events="all"><path class="banner" d="M 176 0 A 4 4 0 0 1 180 4 L 180 14 A 4 4 0 0 1 176 18 L 4 18 A 4 4 0 0 1 0 14 L 0 4 A 4 4 0 0 1 4 0 Z" style="fill: rgb(33, 113, 181);"/><path class="expand" fill="#FFFFFF" d="M -5 -10 L 8.66 0 L -5 10 Z" transform="translate(9, 9) rotate(0) scale(0.5)"/><text class="title" font-size="11" font-family="sans-serif" x="18" y="13" fill="#FFFFFF">Apply</text></g><path class="cost" fill="#F25A29" d="M 176 18 A 4 4 0 0 1 176 18 L 4 18 A 4 4 0 0 1 4 18 Z"/><rect class="outline" stroke-width="1" fill="none" ry="4" rx="4" height="18" width="180" style="stroke: rgb(23, 79, 126);"/></g><g class="operator" transform="translate(300.8974914550781,-698.47900390625)"><rect class="background" fill="#ffffff" ry="4" rx="4" height="18" width="180"/><g class="header" pointer-events="all"><path class="banner" d="M 176 0 A 4 4 0 0 1 180 4 L 180 14 A 4 4 0 0 1 176 18 L 4 18 A 4 4 0 0 1 0 14 L 0 4 A 4 4 0 0 1 4 0 Z" style="fill: rgb(33, 113, 181);"/><path class="expand" fill="#FFFFFF" d="M -5 -10 L 8.66 0 L -5 10 Z" transform="translate(9, 9) rotate(0) scale(0.5)"/><text class="title" font-size="11" font-family="sans-serif" x="18" y="13" fill="#FFFFFF">Distinct</text></g><path class="cost" fill="#F25A29" d="M 176 18 A 4 4 0 0 1 176 18 L 4 18 A 4 4 0 0 1 4 18 Z"/><rect class="outline" stroke-width="1" fill="none" ry="4" rx="4" height="18" width="180" style="stroke: rgb(23, 79, 126);"/></g><g class="operator" transform="translate(245.62867736816406,-778.6657104492188)"><rect class="background" fill="#ffffff" ry="4" rx="4" height="18" width="180"/><g class="header" pointer-events="all"><path class="banner" d="M 176 0 A 4 4 0 0 1 180 4 L 180 14 A 4 4 0 0 1 176 18 L 4 18 A 4 4 0 0 1 0 14 L 0 4 A 4 4 0 0 1 4 0 Z" style="fill: rgb(33, 113, 181);"/><path class="expand" fill="#FFFFFF" d="M -5 -10 L 8.66 0 L -5 10 Z" transform="translate(9, 9) rotate(0) scale(0.5)"/><text class="title" font-size="11" font-family="sans-serif" x="18" y="13" fill="#FFFFFF">Filter</text></g><path class="cost" fill="#F25A29" d="M 176 18 A 4 4 0 0 1 176 18 L 4 18 A 4 4 0 0 1 4 18 Z"/><rect class="outline" stroke-width="1" fill="none" ry="4" rx="4" height="18" width="180" style="stroke: rgb(23, 79, 126);"/></g><g class="operator" transform="translate(207.9696502685547,-859.3199462890625)"><rect class="background" fill="#ffffff" ry="4" rx="4" height="18" width="180"/><g class="header" pointer-events="all"><path class="banner" d="M 176 0 A 4 4 0 0 1 180 4 L 180 14 A 4 4 0 0 1 176 18 L 4 18 A 4 4 0 0 1 0 14 L 0 4 A 4 4 0 0 1 4 0 Z" style="fill: rgb(8, 81, 156);"/><path class="expand" fill="#FFFFFF" d="M -5 -10 L 8.66 0 L -5 10 Z" transform="translate(9, 9) rotate(0) scale(0.5)"/><text class="title" font-size="11" font-family="sans-serif" x="18" y="13" fill="#FFFFFF">NodeHashJoin</text></g><path class="cost" fill="#F25A29" d="M 176 18 A 4 4 0 0 1 176 18 L 4 18 A 4 4 0 0 1 4 18 Z"/><rect class="outline" stroke-width="1" fill="none" ry="4" rx="4" height="18" width="180" style="stroke: rgb(5, 56, 109);"/></g><g class="operator" transform="translate(24.876352310180664,-935.27197265625)"><rect class="background" fill="#ffffff" ry="4" rx="4" height="18" width="180"/><g class="header" pointer-events="all"><path class="banner" d="M 176 0 A 4 4 0 0 1 180 4 L 180 14 A 4 4 0 0 1 176 18 L 4 18 A 4 4 0 0 1 0 14 L 0 4 A 4 4 0 0 1 4 0 Z" style="fill: rgb(8, 81, 156);"/><path class="expand" fill="#FFFFFF" d="M -5 -10 L 8.66 0 L -5 10 Z" transform="translate(9, 9) rotate(0) scale(0.5)"/><text class="title" font-size="11" font-family="sans-serif" x="18" y="13" fill="#FFFFFF">NodeHashJoin</text></g><path class="cost" fill="#F25A29" d="M 176 18 A 4 4 0 0 1 176 18 L 4 18 A 4 4 0 0 1 4 18 Z"/><rect class="outline" stroke-width="1" fill="none" ry="4" rx="4" height="18" width="180" style="stroke: rgb(5, 56, 109);"/></g><g class="operator" transform="translate(10.326091766357422,-1047.13232421875)"><rect class="background" fill="#ffffff" ry="4" rx="4" height="23.82475003613349" width="180"/><g class="header" pointer-events="all"><path class="banner" d="M 176 0 A 4 4 0 0 1 180 4 L 180 14 A 4 4 0 0 1 180 18 L 0 18 A 4 4 0 0 1 0 14 L 0 4 A 4 4 0 0 1 4 0 Z" style="fill: rgb(33, 113, 181);"/><path class="expand" fill="#FFFFFF" d="M -5 -10 L 8.66 0 L -5 10 Z" transform="translate(9, 9) rotate(0) scale(0.5)"/><text class="title" font-size="11" font-family="sans-serif" x="18" y="13" fill="#FFFFFF">Filter</text></g><path class="cost" fill="#F25A29" d="M 0 18 L 180 18 L 180 19.82475003613349 A 4 4 0 0 1 176 23.82475003613349 L 4 23.82475003613349 A 4 4 0 0 1 0 19.82475003613349 Z"/><rect class="outline" stroke-width="1" fill="none" ry="4" rx="4" height="23.82475003613349" width="180" style="stroke: rgb(23, 79, 126);"/></g><g class="operator" transform="translate(4.914438247680664,-1159.1842041015625)"><rect class="background" fill="#ffffff" ry="4" rx="4" height="25.952020911994374" width="180"/><g class="header" pointer-events="all"><path class="banner" d="M 176 0 A 4 4 0 0 1 180 4 L 180 14 A 4 4 0 0 1 180 18 L 0 18 A 4 4 0 0 1 0 14 L 0 4 A 4 4 0 0 1 4 0 Z" style="fill: rgb(8, 81, 156);"/><path class="expand" fill="#FFFFFF" d="M -5 -10 L 8.66 0 L -5 10 Z" transform="translate(9, 9) rotate(0) scale(0.5)"/><text class="title" font-size="11" font-family="sans-serif" x="18" y="13" fill="#FFFFFF">Expand(All)</text></g><path class="cost" fill="#F25A29" d="M 0 18 L 180 18 L 180 21.952020911994374 A 4 4 0 0 1 176 25.952020911994374 L 4 25.952020911994374 A 4 4 0 0 1 0 21.952020911994374 Z"/><rect class="outline" stroke-width="1" fill="none" ry="4" rx="4" height="25.952020911994374" width="180" style="stroke: rgb(5, 56, 109);"/></g><g class="operator" transform="translate(2.9004745483398438,-1271.2359619140625)"><rect class="background" fill="#ffffff" ry="4" rx="4" height="24.484593753197032" width="180"/><g class="header" pointer-events="all"><path class="banner" d="M 176 0 A 4 4 0 0 1 180 4 L 180 14 A 4 4 0 0 1 180 18 L 0 18 A 4 4 0 0 1 0 14 L 0 4 A 4 4 0 0 1 4 0 Z" style="fill: rgb(33, 113, 181);"/><path class="expand" fill="#FFFFFF" d="M -5 -10 L 8.66 0 L -5 10 Z" transform="translate(9, 9) rotate(0) scale(0.5)"/><text class="title" font-size="11" font-family="sans-serif" x="18" y="13" fill="#FFFFFF">Filter</text></g><path class="cost" fill="#F25A29" d="M 0 18 L 180 18 L 180 20.484593753197032 A 4 4 0 0 1 176 24.484593753197032 L 4 24.484593753197032 A 4 4 0 0 1 0 20.484593753197032 Z"/><rect class="outline" stroke-width="1" fill="none" ry="4" rx="4" height="24.484593753197032" width="180" style="stroke: rgb(23, 79, 126);"/></g><g class="operator" transform="translate(1.9483551979064941,-1372.55517578125)"><rect class="background" fill="#ffffff" ry="4" rx="4" height="25.042483666785472" width="180"/><g class="header" pointer-events="all"><path class="banner" d="M 176 0 A 4 4 0 0 1 180 4 L 180 14 A 4 4 0 0 1 180 18 L 0 18 A 4 4 0 0 1 0 14 L 0 4 A 4 4 0 0 1 4 0 Z" style="fill: rgb(8, 81, 156);"/><path class="expand" fill="#FFFFFF" d="M -5 -10 L 8.66 0 L -5 10 Z" transform="translate(9, 9) rotate(0) scale(0.5)"/><text class="title" font-size="11" font-family="sans-serif" x="18" y="13" fill="#FFFFFF">Expand(All)</text></g><path class="cost" fill="#F25A29" d="M 0 18 L 180 18 L 180 21.042483666785472 A 4 4 0 0 1 176 25.042483666785472 L 4 25.042483666785472 A 4 4 0 0 1 0 21.042483666785472 Z"/><rect class="outline" stroke-width="1" fill="none" ry="4" rx="4" height="25.042483666785472" width="180" style="stroke: rgb(5, 56, 109);"/></g><g class="operator" transform="translate(1.3403717279434204,-1456.8804931640625)"><rect class="background" fill="#ffffff" ry="4" rx="4" height="25.52574989159953" width="180"/><g class="header" pointer-events="all"><path class="banner" d="M 176 0 A 4 4 0 0 1 180 4 L 180 14 A 4 4 0 0 1 180 18 L 0 18 A 4 4 0 0 1 0 14 L 0 4 A 4 4 0 0 1 4 0 Z" style="fill: rgb(33, 113, 181);"/><path class="expand" fill="#FFFFFF" d="M -5 -10 L 8.66 0 L -5 10 Z" transform="translate(9, 9) rotate(0) scale(0.5)"/><text class="title" font-size="11" font-family="sans-serif" x="18" y="13" fill="#FFFFFF">Filter</text></g><path class="cost" fill="#F25A29" d="M 0 18 L 180 18 L 180 21.52574989159953 A 4 4 0 0 1 176 25.52574989159953 L 4 25.52574989159953 A 4 4 0 0 1 0 21.52574989159953 Z"/><rect class="outline" stroke-width="1" fill="none" ry="4" rx="4" height="25.52574989159953" width="180" style="stroke: rgb(23, 79, 126);"/></g><g class="operator" transform="translate(0.9321603178977966,-1558.1993408203125)"><rect class="background" fill="#ffffff" ry="4" rx="4" height="25.952020911994374" width="180"/><g class="header" pointer-events="all"><path class="banner" d="M 176 0 A 4 4 0 0 1 180 4 L 180 14 A 4 4 0 0 1 180 18 L 0 18 A 4 4 0 0 1 0 14 L 0 4 A 4 4 0 0 1 4 0 Z" style="fill: rgb(8, 81, 156);"/><path class="expand" fill="#FFFFFF" d="M -5 -10 L 8.66 0 L -5 10 Z" transform="translate(9, 9) rotate(0) scale(0.5)"/><text class="title" font-size="11" font-family="sans-serif" x="18" y="13" fill="#FFFFFF">Expand(All)</text></g><path class="cost" fill="#F25A29" d="M 0 18 L 180 18 L 180 21.952020911994374 A 4 4 0 0 1 176 25.952020911994374 L 4 25.952020911994374 A 4 4 0 0 1 0 21.952020911994374 Z"/><rect class="outline" stroke-width="1" fill="none" ry="4" rx="4" height="25.952020911994374" width="180" style="stroke: rgb(5, 56, 109);"/></g><g class="operator" transform="translate(0.6847783327102661,-1661.251953125)"><rect class="background" fill="#ffffff" ry="4" rx="4" height="53.05260876613298" width="180"/><g class="header" pointer-events="all"><path class="banner" d="M 176 0 A 4 4 0 0 1 180 4 L 180 14 A 4 4 0 0 1 180 18 L 0 18 A 4 4 0 0 1 0 14 L 0 4 A 4 4 0 0 1 4 0 Z" style="fill: rgb(33, 113, 181);"/><path class="expand" fill="#FFFFFF" d="M -5 -10 L 8.66 0 L -5 10 Z" transform="translate(9, 9) rotate(0) scale(0.5)"/><text class="title" font-size="11" font-family="sans-serif" x="18" y="13" fill="#FFFFFF">Filter</text></g><path class="cost" fill="#F25A29" d="M 0 18 L 180 18 L 180 49.05260876613298 A 4 4 0 0 1 176 53.05260876613298 L 4 53.05260876613298 A 4 4 0 0 1 0 49.05260876613298 Z"/><text class="cost" font-size="10" font-family="sans-serif" fill="white" x="90" text-anchor="end" y="32">16,080 </text><text class="cost" font-size="10" font-family="sans-serif" fill="white" x="90" text-anchor="start" y="32">db hits</text><rect class="outline" stroke-width="1" fill="none" ry="4" rx="4" height="53.05260876613298" width="180" style="stroke: rgb(23, 79, 126);"/></g><g class="operator" transform="translate(0.5700064897537231,-1764.3048095703125)"><rect class="background" fill="#ffffff" ry="4" rx="4" height="53.052833814833896" width="180"/><g class="header" pointer-events="all"><path class="banner" d="M 176 0 A 4 4 0 0 1 180 4 L 180 14 A 4 4 0 0 1 180 18 L 0 18 A 4 4 0 0 1 0 14 L 0 4 A 4 4 0 0 1 4 0 Z" style="fill: rgb(158, 202, 225);"/><path class="expand" fill="#000000" d="M -5 -10 L 8.66 0 L -5 10 Z" transform="translate(9, 9) rotate(0) scale(0.5)"/><text class="title" font-size="11" font-family="sans-serif" x="18" y="13" fill="#000000">NodeByLabelScan</text></g><path class="cost" fill="#F25A29" d="M 0 18 L 180 18 L 180 49.052833814833896 A 4 4 0 0 1 176 53.052833814833896 L 4 53.052833814833896 A 4 4 0 0 1 0 49.052833814833896 Z"/><text class="cost" font-size="10" font-family="sans-serif" fill="white" x="90" text-anchor="end" y="32">16,081 </text><text class="cost" font-size="10" font-family="sans-serif" fill="white" x="90" text-anchor="start" y="32">db hits</text><rect class="outline" stroke-width="1" fill="none" ry="4" rx="4" height="53.052833814833896" width="180" style="stroke: rgb(110, 141, 157);"/></g><g class="operator" transform="translate(240.3260955810547,-1047.13232421875)"><rect class="background" fill="#ffffff" ry="4" rx="4" height="61.8603584502031" width="180"/><g class="header" pointer-events="all"><path class="banner" d="M 176 0 A 4 4 0 0 1 180 4 L 180 14 A 4 4 0 0 1 180 18 L 0 18 A 4 4 0 0 1 0 14 L 0 4 A 4 4 0 0 1 4 0 Z" style="fill: rgb(33, 113, 181);"/><path class="expand" fill="#FFFFFF" d="M -5 -10 L 8.66 0 L -5 10 Z" transform="translate(9, 9) rotate(0) scale(0.5)"/><text class="title" font-size="11" font-family="sans-serif" x="18" y="13" fill="#FFFFFF">Filter</text></g><path class="cost" fill="#F25A29" d="M 0 18 L 180 18 L 180 57.8603584502031 A 4 4 0 0 1 176 61.8603584502031 L 4 61.8603584502031 A 4 4 0 0 1 0 57.8603584502031 Z"/><text class="cost" font-size="10" font-family="sans-serif" fill="white" x="90" text-anchor="end" y="32">183,333 </text><text class="cost" font-size="10" font-family="sans-serif" fill="white" x="90" text-anchor="start" y="32">db hits</text><rect class="outline" stroke-width="1" fill="none" ry="4" rx="4" height="61.8603584502031" width="180" style="stroke: rgb(23, 79, 126);"/></g><g class="operator" transform="translate(235.57003784179688,-1159.1842041015625)"><rect class="background" fill="#ffffff" ry="4" rx="4" height="62.051801054806845" width="180"/><g class="header" pointer-events="all"><path class="banner" d="M 176 0 A 4 4 0 0 1 180 4 L 180 14 A 4 4 0 0 1 180 18 L 0 18 A 4 4 0 0 1 0 14 L 0 4 A 4 4 0 0 1 4 0 Z" style="fill: rgb(8, 81, 156);"/><path class="expand" fill="#FFFFFF" d="M -5 -10 L 8.66 0 L -5 10 Z" transform="translate(9, 9) rotate(0) scale(0.5)"/><text class="title" font-size="11" font-family="sans-serif" x="18" y="13" fill="#FFFFFF">Expand(All)</text></g><path class="cost" fill="#F25A29" d="M 0 18 L 180 18 L 180 58.051801054806845 A 4 4 0 0 1 176 62.051801054806845 L 4 62.051801054806845 A 4 4 0 0 1 0 58.051801054806845 Z"/><text class="cost" font-size="10" font-family="sans-serif" fill="white" x="90" text-anchor="end" y="32">193,292 </text><text class="cost" font-size="10" font-family="sans-serif" fill="white" x="90" text-anchor="start" y="32">db hits</text><rect class="outline" stroke-width="1" fill="none" ry="4" rx="4" height="62.051801054806845" width="180" style="stroke: rgb(5, 56, 109);"/></g><g class="operator" transform="translate(234.27882385253906,-1271.2359619140625)"><rect class="background" fill="#ffffff" ry="4" rx="4" height="51.319191167487844" width="180"/><g class="header" pointer-events="all"><path class="banner" d="M 176 0 A 4 4 0 0 1 180 4 L 180 14 A 4 4 0 0 1 180 18 L 0 18 A 4 4 0 0 1 0 14 L 0 4 A 4 4 0 0 1 4 0 Z" style="fill: rgb(158, 202, 225);"/><path class="expand" fill="#000000" d="M -5 -10 L 8.66 0 L -5 10 Z" transform="translate(9, 9) rotate(0) scale(0.5)"/><text class="title" font-size="11" font-family="sans-serif" x="18" y="13" fill="#000000">NodeByLabelScan</text></g><path class="cost" fill="#F25A29" d="M 0 18 L 180 18 L 180 47.319191167487844 A 4 4 0 0 1 176 51.319191167487844 L 4 51.319191167487844 A 4 4 0 0 1 0 47.319191167487844 Z"/><text class="cost" font-size="10" font-family="sans-serif" fill="white" x="90" text-anchor="end" y="32">9,960 </text><text class="cost" font-size="10" font-family="sans-serif" fill="white" x="90" text-anchor="start" y="32">db hits</text><rect class="outline" stroke-width="1" fill="none" ry="4" rx="4" height="51.319191167487844" width="180" style="stroke: rgb(110, 141, 157);"/></g><g class="operator" transform="translate(254.87635803222656,-935.27197265625)"><rect class="background" fill="#ffffff" ry="4" rx="4" height="18" width="180"/><g class="header" pointer-events="all"><path class="banner" d="M 176 0 A 4 4 0 0 1 180 4 L 180 14 A 4 4 0 0 1 176 18 L 4 18 A 4 4 0 0 1 0 14 L 0 4 A 4 4 0 0 1 4 0 Z" style="fill: rgb(33, 113, 181);"/><path class="expand" fill="#FFFFFF" d="M -5 -10 L 8.66 0 L -5 10 Z" transform="translate(9, 9) rotate(0) scale(0.5)"/><text class="title" font-size="11" font-family="sans-serif" x="18" y="13" fill="#FFFFFF">Filter</text></g><path class="cost" fill="#F25A29" d="M 176 18 A 4 4 0 0 1 176 18 L 4 18 A 4 4 0 0 1 4 18 Z"/><rect class="outline" stroke-width="1" fill="none" ry="4" rx="4" height="18" width="180" style="stroke: rgb(23, 79, 126);"/></g><g class="operator" transform="translate(470.3260803222656,-1047.13232421875)"><rect class="background" fill="#ffffff" ry="4" rx="4" height="18" width="180"/><g class="header" pointer-events="all"><path class="banner" d="M 176 0 A 4 4 0 0 1 180 4 L 180 14 A 4 4 0 0 1 176 18 L 4 18 A 4 4 0 0 1 0 14 L 0 4 A 4 4 0 0 1 4 0 Z" style="fill: rgb(8, 81, 156);"/><path class="expand" fill="#FFFFFF" d="M -5 -10 L 8.66 0 L -5 10 Z" transform="translate(9, 9) rotate(0) scale(0.5)"/><text class="title" font-size="11" font-family="sans-serif" x="18" y="13" fill="#FFFFFF">NodeHashJoin</text></g><path class="cost" fill="#F25A29" d="M 176 18 A 4 4 0 0 1 176 18 L 4 18 A 4 4 0 0 1 4 18 Z"/><rect class="outline" stroke-width="1" fill="none" ry="4" rx="4" height="18" width="180" style="stroke: rgb(5, 56, 109);"/></g><g class="operator" transform="translate(472.0132141113281,-1159.1842041015625)"><rect class="background" fill="#ffffff" ry="4" rx="4" height="61.8603584502031" width="180"/><g class="header" pointer-events="all"><path class="banner" d="M 176 0 A 4 4 0 0 1 180 4 L 180 14 A 4 4 0 0 1 180 18 L 0 18 A 4 4 0 0 1 0 14 L 0 4 A 4 4 0 0 1 4 0 Z" style="fill: rgb(33, 113, 181);"/><path class="expand" fill="#FFFFFF" d="M -5 -10 L 8.66 0 L -5 10 Z" transform="translate(9, 9) rotate(0) scale(0.5)"/><text class="title" font-size="11" font-family="sans-serif" x="18" y="13" fill="#FFFFFF">Filter</text></g><path class="cost" fill="#F25A29" d="M 0 18 L 180 18 L 180 57.8603584502031 A 4 4 0 0 1 176 61.8603584502031 L 4 61.8603584502031 A 4 4 0 0 1 0 57.8603584502031 Z"/><text class="cost" font-size="10" font-family="sans-serif" fill="white" x="90" text-anchor="end" y="32">183,333 </text><text class="cost" font-size="10" font-family="sans-serif" fill="white" x="90" text-anchor="start" y="32">db hits</text><rect class="outline" stroke-width="1" fill="none" ry="4" rx="4" height="61.8603584502031" width="180" style="stroke: rgb(23, 79, 126);"/></g><g class="operator" transform="translate(474.8430480957031,-1271.2359619140625)"><rect class="background" fill="#ffffff" ry="4" rx="4" height="62.051801054806845" width="180"/><g class="header" pointer-events="all"><path class="banner" d="M 176 0 A 4 4 0 0 1 180 4 L 180 14 A 4 4 0 0 1 180 18 L 0 18 A 4 4 0 0 1 0 14 L 0 4 A 4 4 0 0 1 4 0 Z" style="fill: rgb(8, 81, 156);"/><path class="expand" fill="#FFFFFF" d="M -5 -10 L 8.66 0 L -5 10 Z" transform="translate(9, 9) rotate(0) scale(0.5)"/><text class="title" font-size="11" font-family="sans-serif" x="18" y="13" fill="#FFFFFF">Expand(All)</text></g><path class="cost" fill="#F25A29" d="M 0 18 L 180 18 L 180 58.051801054806845 A 4 4 0 0 1 176 62.051801054806845 L 4 62.051801054806845 A 4 4 0 0 1 0 58.051801054806845 Z"/><text class="cost" font-size="10" font-family="sans-serif" fill="white" x="90" text-anchor="end" y="32">193,292 </text><text class="cost" font-size="10" font-family="sans-serif" fill="white" x="90" text-anchor="start" y="32">db hits</text><rect class="outline" stroke-width="1" fill="none" ry="4" rx="4" height="62.051801054806845" width="180" style="stroke: rgb(5, 56, 109);"/></g><g class="operator" transform="translate(476.6206359863281,-1372.55517578125)"><rect class="background" fill="#ffffff" ry="4" rx="4" height="51.319191167487844" width="180"/><g class="header" pointer-events="all"><path class="banner" d="M 176 0 A 4 4 0 0 1 180 4 L 180 14 A 4 4 0 0 1 180 18 L 0 18 A 4 4 0 0 1 0 14 L 0 4 A 4 4 0 0 1 4 0 Z" style="fill: rgb(158, 202, 225);"/><path class="expand" fill="#000000" d="M -5 -10 L 8.66 0 L -5 10 Z" transform="translate(9, 9) rotate(0) scale(0.5)"/><text class="title" font-size="11" font-family="sans-serif" x="18" y="13" fill="#000000">NodeByLabelScan</text></g><path class="cost" fill="#F25A29" d="M 0 18 L 180 18 L 180 47.319191167487844 A 4 4 0 0 1 176 51.319191167487844 L 4 51.319191167487844 A 4 4 0 0 1 0 47.319191167487844 Z"/><text class="cost" font-size="10" font-family="sans-serif" fill="white" x="90" text-anchor="end" y="32">9,960 </text><text class="cost" font-size="10" font-family="sans-serif" fill="white" x="90" text-anchor="start" y="32">db hits</text><rect class="outline" stroke-width="1" fill="none" ry="4" rx="4" height="51.319191167487844" width="180" style="stroke: rgb(110, 141, 157);"/></g><g class="operator" transform="translate(702.0132446289062,-1159.1842041015625)"><rect class="background" fill="#ffffff" ry="4" rx="4" height="18" width="180"/><g class="header" pointer-events="all"><path class="banner" d="M 176 0 A 4 4 0 0 1 180 4 L 180 14 A 4 4 0 0 1 176 18 L 4 18 A 4 4 0 0 1 0 14 L 0 4 A 4 4 0 0 1 4 0 Z" style="fill: rgb(33, 113, 181);"/><path class="expand" fill="#FFFFFF" d="M -5 -10 L 8.66 0 L -5 10 Z" transform="translate(9, 9) rotate(0) scale(0.5)"/><text class="title" font-size="11" font-family="sans-serif" x="18" y="13" fill="#FFFFFF">Filter</text></g><path class="cost" fill="#F25A29" d="M 176 18 A 4 4 0 0 1 176 18 L 4 18 A 4 4 0 0 1 4 18 Z"/><rect class="outline" stroke-width="1" fill="none" ry="4" rx="4" height="18" width="180" style="stroke: rgb(23, 79, 126);"/></g><g class="operator" transform="translate(706.1138916015625,-1271.2359619140625)"><rect class="background" fill="#ffffff" ry="4" rx="4" height="47.51835652028357" width="180"/><g class="header" pointer-events="all"><path class="banner" d="M 176 0 A 4 4 0 0 1 180 4 L 180 14 A 4 4 0 0 1 180 18 L 0 18 A 4 4 0 0 1 0 14 L 0 4 A 4 4 0 0 1 4 0 Z" style="fill: rgb(8, 81, 156);"/><path class="expand" fill="#FFFFFF" d="M -5 -10 L 8.66 0 L -5 10 Z" transform="translate(9, 9) rotate(0) scale(0.5)"/><text class="title" font-size="11" font-family="sans-serif" x="18" y="13" fill="#FFFFFF">Expand(All)</text></g><path class="cost" fill="#F25A29" d="M 0 18 L 180 18 L 180 43.51835652028357 A 4 4 0 0 1 176 47.51835652028357 L 4 47.51835652028357 A 4 4 0 0 1 0 43.51835652028357 Z"/><text class="cost" font-size="10" font-family="sans-serif" fill="white" x="90" text-anchor="end" y="32">3,484 </text><text class="cost" font-size="10" font-family="sans-serif" fill="white" x="90" text-anchor="start" y="32">db hits</text><rect class="outline" stroke-width="1" fill="none" ry="4" rx="4" height="47.51835652028357" width="180" style="stroke: rgb(5, 56, 109);"/></g><g class="operator" transform="translate(709.5023193359375,-1372.55517578125)"><rect class="background" fill="#ffffff" ry="4" rx="4" height="34.28535424532771" width="180"/><g class="header" pointer-events="all"><path class="banner" d="M 176 0 A 4 4 0 0 1 180 4 L 180 14 A 4 4 0 0 1 180 18 L 0 18 A 4 4 0 0 1 0 14 L 0 4 A 4 4 0 0 1 4 0 Z" style="fill: rgb(33, 113, 181);"/><path class="expand" fill="#FFFFFF" d="M -5 -10 L 8.66 0 L -5 10 Z" transform="translate(9, 9) rotate(0) scale(0.5)"/><text class="title" font-size="11" font-family="sans-serif" x="18" y="13" fill="#FFFFFF">Filter</text></g><path class="cost" fill="#F25A29" d="M 0 18 L 180 18 L 180 30.28535424532771 A 4 4 0 0 1 176 34.28535424532771 L 4 34.28535424532771 A 4 4 0 0 1 0 30.28535424532771 Z"/><rect class="outline" stroke-width="1" fill="none" ry="4" rx="4" height="34.28535424532771" width="180" style="stroke: rgb(23, 79, 126);"/></g><g class="operator" transform="translate(711.7743530273438,-1456.8804931640625)"><rect class="background" fill="#ffffff" ry="4" rx="4" height="34.32534493600912" width="180"/><g class="header" pointer-events="all"><path class="banner" d="M 176 0 A 4 4 0 0 1 180 4 L 180 14 A 4 4 0 0 1 180 18 L 0 18 A 4 4 0 0 1 0 14 L 0 4 A 4 4 0 0 1 4 0 Z" style="fill: rgb(8, 81, 156);"/><path class="expand" fill="#FFFFFF" d="M -5 -10 L 8.66 0 L -5 10 Z" transform="translate(9, 9) rotate(0) scale(0.5)"/><text class="title" font-size="11" font-family="sans-serif" x="18" y="13" fill="#FFFFFF">Expand(All)</text></g><path class="cost" fill="#F25A29" d="M 0 18.000000000000004 L 180 18.000000000000004 L 180 30.325344936009117 A 4 4 0 0 1 176 34.32534493600912 L 4 34.32534493600912 A 4 4 0 0 1 0 30.325344936009117 Z"/><rect class="outline" stroke-width="1" fill="none" ry="4" rx="4" height="34.32534493600912" width="180" style="stroke: rgb(5, 56, 109);"/></g><g class="operator" transform="translate(713.0999755859375,-1558.1993408203125)"><rect class="background" fill="#ffffff" ry="4" rx="4" height="51.31882782019749" width="180"/><g class="header" pointer-events="all"><path class="banner" d="M 176 0 A 4 4 0 0 1 180 4 L 180 14 A 4 4 0 0 1 180 18 L 0 18 A 4 4 0 0 1 0 14 L 0 4 A 4 4 0 0 1 4 0 Z" style="fill: rgb(33, 113, 181);"/><path class="expand" fill="#FFFFFF" d="M -5 -10 L 8.66 0 L -5 10 Z" transform="translate(9, 9) rotate(0) scale(0.5)"/><text class="title" font-size="11" font-family="sans-serif" x="18" y="13" fill="#FFFFFF">Filter</text></g><path class="cost" fill="#F25A29" d="M 0 18 L 180 18 L 180 47.31882782019749 A 4 4 0 0 1 176 51.31882782019749 L 4 51.31882782019749 A 4 4 0 0 1 0 47.31882782019749 Z"/><text class="cost" font-size="10" font-family="sans-serif" fill="white" x="90" text-anchor="end" y="32">9,959 </text><text class="cost" font-size="10" font-family="sans-serif" fill="white" x="90" text-anchor="start" y="32">db hits</text><rect class="outline" stroke-width="1" fill="none" ry="4" rx="4" height="51.31882782019749" width="180" style="stroke: rgb(23, 79, 126);"/></g><g class="operator" transform="translate(713.6995849609375,-1661.251953125)"><rect class="background" fill="#ffffff" ry="4" rx="4" height="51.319191167487844" width="180"/><g class="header" pointer-events="all"><path class="banner" d="M 176 0 A 4 4 0 0 1 180 4 L 180 14 A 4 4 0 0 1 180 18 L 0 18 A 4 4 0 0 1 0 14 L 0 4 A 4 4 0 0 1 4 0 Z" style="fill: rgb(158, 202, 225);"/><path class="expand" fill="#000000" d="M -5 -10 L 8.66 0 L -5 10 Z" transform="translate(9, 9) rotate(0) scale(0.5)"/><text class="title" font-size="11" font-family="sans-serif" x="18" y="13" fill="#000000">NodeByLabelScan</text></g><path class="cost" fill="#F25A29" d="M 0 18 L 180 18 L 180 47.319191167487844 A 4 4 0 0 1 176 51.319191167487844 L 4 51.319191167487844 A 4 4 0 0 1 0 47.319191167487844 Z"/><text class="cost" font-size="10" font-family="sans-serif" fill="white" x="90" text-anchor="end" y="32">9,960 </text><text class="cost" font-size="10" font-family="sans-serif" fill="white" x="90" text-anchor="start" y="32">db hits</text><rect class="outline" stroke-width="1" fill="none" ry="4" rx="4" height="51.319191167487844" width="180" style="stroke: rgb(110, 141, 157);"/></g><g class="operator" transform="translate(530.8975219726562,-698.47900390625)"><rect class="background" fill="#ffffff" ry="4" rx="4" height="18" width="180"/><g class="header" pointer-events="all"><path class="banner" d="M 176 0 A 4 4 0 0 1 180 4 L 180 14 A 4 4 0 0 1 176 18 L 4 18 A 4 4 0 0 1 0 14 L 0 4 A 4 4 0 0 1 4 0 Z" style="fill: rgb(33, 113, 181);"/><path class="expand" fill="#FFFFFF" d="M -5 -10 L 8.66 0 L -5 10 Z" transform="translate(9, 9) rotate(0) scale(0.5)"/><text class="title" font-size="11" font-family="sans-serif" x="18" y="13" fill="#FFFFFF">SemiApply</text></g><path class="cost" fill="#F25A29" d="M 176 18 A 4 4 0 0 1 176 18 L 4 18 A 4 4 0 0 1 4 18 Z"/><rect class="outline" stroke-width="1" fill="none" ry="4" rx="4" height="18" width="180" style="stroke: rgb(23, 79, 126);"/></g><g class="operator" transform="translate(498.9489440917969,-778.6657104492188)"><rect class="background" fill="#ffffff" ry="4" rx="4" height="30.186649982491303" width="180"/><g class="header" pointer-events="all"><path class="banner" d="M 176 0 A 4 4 0 0 1 180 4 L 180 14 A 4 4 0 0 1 180 18 L 0 18 A 4 4 0 0 1 0 14 L 0 4 A 4 4 0 0 1 4 0 Z" style="fill: rgb(33, 113, 181);"/><path class="expand" fill="#FFFFFF" d="M -5 -10 L 8.66 0 L -5 10 Z" transform="translate(9, 9) rotate(0) scale(0.5)"/><text class="title" font-size="11" font-family="sans-serif" x="18" y="13" fill="#FFFFFF">Filter</text></g><path class="cost" fill="#F25A29" d="M 0 18 L 180 18 L 180 26.186649982491303 A 4 4 0 0 1 176 30.186649982491303 L 4 30.186649982491303 A 4 4 0 0 1 0 26.186649982491303 Z"/><rect class="outline" stroke-width="1" fill="none" ry="4" rx="4" height="30.186649982491303" width="180" style="stroke: rgb(23, 79, 126);"/></g><g class="operator" transform="translate(484.0399475097656,-859.3199462890625)"><rect class="background" fill="#ffffff" ry="4" rx="4" height="30.65428283231573" width="180"/><g class="header" pointer-events="all"><path class="banner" d="M 176 0 A 4 4 0 0 1 180 4 L 180 14 A 4 4 0 0 1 180 18 L 0 18 A 4 4 0 0 1 0 14 L 0 4 A 4 4 0 0 1 4 0 Z" style="fill: rgb(8, 81, 156);"/><path class="expand" fill="#FFFFFF" d="M -5 -10 L 8.66 0 L -5 10 Z" transform="translate(9, 9) rotate(0) scale(0.5)"/><text class="title" font-size="11" font-family="sans-serif" x="18" y="13" fill="#FFFFFF">Expand(All)</text></g><path class="cost" fill="#F25A29" d="M 0 18 L 180 18 L 180 26.65428283231573 A 4 4 0 0 1 176 30.65428283231573 L 4 30.65428283231573 A 4 4 0 0 1 0 26.65428283231573 Z"/><rect class="outline" stroke-width="1" fill="none" ry="4" rx="4" height="30.65428283231573" width="180" style="stroke: rgb(5, 56, 109);"/></g><g class="operator" transform="translate(484.8763427734375,-935.27197265625)"><rect class="background" fill="#ffffff" ry="4" rx="4" height="25.952020911994374" width="180"/><g class="header" pointer-events="all"><path class="banner" d="M 176 0 A 4 4 0 0 1 180 4 L 180 14 A 4 4 0 0 1 180 18 L 0 18 A 4 4 0 0 1 0 14 L 0 4 A 4 4 0 0 1 4 0 Z" style="fill: rgb(33, 113, 181);"/><path class="expand" fill="#FFFFFF" d="M -5 -10 L 8.66 0 L -5 10 Z" transform="translate(9, 9) rotate(0) scale(0.5)"/><text class="title" font-size="11" font-family="sans-serif" x="18" y="13" fill="#FFFFFF">Filter</text></g><path class="cost" fill="#F25A29" d="M 0 18 L 180 18 L 180 21.952020911994374 A 4 4 0 0 1 176 25.952020911994374 L 4 25.952020911994374 A 4 4 0 0 1 0 21.952020911994374 Z"/><rect class="outline" stroke-width="1" fill="none" ry="4" rx="4" height="25.952020911994374" width="180" style="stroke: rgb(23, 79, 126);"/></g><g class="operator" transform="translate(700.3261108398438,-1047.13232421875)"><rect class="background" fill="#ffffff" ry="4" rx="4" height="18" width="180"/><g class="header" pointer-events="all"><path class="banner" d="M 176 0 A 4 4 0 0 1 180 4 L 180 14 A 4 4 0 0 1 176 18 L 4 18 A 4 4 0 0 1 0 14 L 0 4 A 4 4 0 0 1 4 0 Z" style="fill: rgb(158, 202, 225);"/><path class="expand" fill="#000000" d="M -5 -10 L 8.66 0 L -5 10 Z" transform="translate(9, 9) rotate(0) scale(0.5)"/><text class="title" font-size="11" font-family="sans-serif" x="18" y="13" fill="#000000">Argument</text></g><path class="cost" fill="#F25A29" d="M 176 18 A 4 4 0 0 1 176 18 L 4 18 A 4 4 0 0 1 4 18 Z"/><rect class="outline" stroke-width="1" fill="none" ry="4" rx="4" height="18" width="180" style="stroke: rgb(110, 141, 157);"/></g><g class="operator" transform="translate(728.948974609375,-778.6657104492188)"><rect class="background" fill="#ffffff" ry="4" rx="4" height="28.253741011485616" width="180"/><g class="header" pointer-events="all"><path class="banner" d="M 176 0 A 4 4 0 0 1 180 4 L 180 14 A 4 4 0 0 1 180 18 L 0 18 A 4 4 0 0 1 0 14 L 0 4 A 4 4 0 0 1 4 0 Z" style="fill: rgb(8, 81, 156);"/><path class="expand" fill="#FFFFFF" d="M -5 -10 L 8.66 0 L -5 10 Z" transform="translate(9, 9) rotate(0) scale(0.5)"/><text class="title" font-size="11" font-family="sans-serif" x="18" y="13" fill="#FFFFFF">Expand(Into)</text></g><path class="cost" fill="#F25A29" d="M 0 18 L 180 18 L 180 24.253741011485616 A 4 4 0 0 1 176 28.253741011485616 L 4 28.253741011485616 A 4 4 0 0 1 0 24.253741011485616 Z"/><rect class="outline" stroke-width="1" fill="none" ry="4" rx="4" height="28.253741011485616" width="180" style="stroke: rgb(5, 56, 109);"/></g><g class="operator" transform="translate(728.5250854492188,-859.3199462890625)"><rect class="background" fill="#ffffff" ry="4" rx="4" height="25.952020911994374" width="180"/><g class="header" pointer-events="all"><path class="banner" d="M 176 0 A 4 4 0 0 1 180 4 L 180 14 A 4 4 0 0 1 180 18 L 0 18 A 4 4 0 0 1 0 14 L 0 4 A 4 4 0 0 1 4 0 Z" style="fill: rgb(33, 113, 181);"/><path class="expand" fill="#FFFFFF" d="M -5 -10 L 8.66 0 L -5 10 Z" transform="translate(9, 9) rotate(0) scale(0.5)"/><text class="title" font-size="11" font-family="sans-serif" x="18" y="13" fill="#FFFFFF">Filter</text></g><path class="cost" fill="#F25A29" d="M 0 18 L 180 18 L 180 21.952020911994374 A 4 4 0 0 1 176 25.952020911994374 L 4 25.952020911994374 A 4 4 0 0 1 0 21.952020911994374 Z"/><rect class="outline" stroke-width="1" fill="none" ry="4" rx="4" height="25.952020911994374" width="180" style="stroke: rgb(23, 79, 126);"/></g><g class="operator" transform="translate(739.25146484375,-935.27197265625)"><rect class="background" fill="#ffffff" ry="4" rx="4" height="18" width="180"/><g class="header" pointer-events="all"><path class="banner" d="M 176 0 A 4 4 0 0 1 180 4 L 180 14 A 4 4 0 0 1 176 18 L 4 18 A 4 4 0 0 1 0 14 L 0 4 A 4 4 0 0 1 4 0 Z" style="fill: rgb(158, 202, 225);"/><path class="expand" fill="#000000" d="M -5 -10 L 8.66 0 L -5 10 Z" transform="translate(9, 9) rotate(0) scale(0.5)"/><text class="title" font-size="11" font-family="sans-serif" x="18" y="13" fill="#000000">Argument</text></g><path class="cost" fill="#F25A29" d="M 176 18 A 4 4 0 0 1 176 18 L 4 18 A 4 4 0 0 1 4 18 Z"/><rect class="outline" stroke-width="1" fill="none" ry="4" rx="4" height="18" width="180" style="stroke: rgb(110, 141, 157);"/></g></g></svg>