<svg xmlns="http://www.w3.org/2000/svg" width="693.5276625095333" height="1734.5196793656955" viewBox="-6.582904501866858 -1724.5196793656955 693.5276625095333 1734.5196793656955"><title>Neo4j Graph Visualization</title><desc>Created using Neo4j (http://www.neo4j.com/)</desc><g class="layer links"><g class="link"><path fill="#DFE1E3" d="M 113.6553567574034 -1673.622094342836 C 113.6553567574034 -1661.5061716188281 114.11213582049265 -1661.5061716188281 114.11213582049265 -1623.622094342836 L 73.63561330195213 -1623.622094342836 C 73.63561330195213 -1635.7380170668437 73.17883423886288 -1635.7380170668437 73.17883423886288 -1673.622094342836 Z"/><text font-size="10" font-family="sans-serif" text-anchor="end" y="-1659.622094342836" x="93.41709549813314">9,959 </text><text font-size="10" font-family="sans-serif" text-anchor="start" y="-1659.622094342836" x="93.41709549813314">rows</text></g><g class="link"><path fill="#DFE1E3" d="M 96.32232830403134 -1582.7247590191791 C 96.32232830403134 -1559.2834930835788 97.25661648301653 -1559.2834930835788 97.25661648301653 -1532.7247590191791 L 92.35970899739861 -1532.7247590191791 C 92.35970899739861 -1556.1660249547795 91.42542081841344 -1556.1660249547795 91.42542081841344 -1582.7247590191791 Z"/><text font-size="10" font-family="sans-serif" text-anchor="end" y="-1568.7247590191791" x="93.8738745612224">1 </text><text font-size="10" font-family="sans-serif" text-anchor="start" y="-1568.7247590191791" x="93.8738745612224">row</text></g><g class="link"><path fill="#DFE1E3" d="M 126.61287697395055 -1477.8364177079957 C 126.61287697395055 -1468.7519120171853 128.06277024087177 -1468.7519120171853 128.06277024087177 -1427.8364177079957 L 64.4533417733858 -1427.8364177079957 C 64.4533417733858 -1436.920923398806 63.00344850646458 -1436.920923398806 63.00344850646458 -1477.8364177079957 Z"/><text font-size="10" font-family="sans-serif" text-anchor="end" y="-1463.8364177079957" x="94.80816274020756">2,524,050 </text><text font-size="10" font-family="sans-serif" text-anchor="start" y="-1463.8364177079957" x="94.80816274020756">rows</text></g><g class="link"><path fill="#DFE1E3" d="M 128.06277024087177 -1373.172716043192 C 128.06277024087177 -1364.0882103523816 130.07725073558402 -1364.0882103523816 130.07725073558402 -1323.172716043192 L 66.46782226809805 -1323.172716043192 C 66.46782226809805 -1332.2572217340023 64.45334177338579 -1332.2572217340023 64.45334177338579 -1373.172716043192 Z"/><text font-size="10" font-family="sans-serif" text-anchor="end" y="-1359.172716043192" x="96.25805600712877">2,524,050 </text><text font-size="10" font-family="sans-serif" text-anchor="start" y="-1359.172716043192" x="96.25805600712877">rows</text></g><g class="link"><path fill="#DFE1E3" d="M 141.27253650184105 -1255.1727160385697 C 141.27253650184105 -1246.0882103477593 143.90423691632765 -1246.0882103477593 143.90423691632765 -1205.1727160385697 L 57.90423691632766 -1205.1727160385697 C 57.90423691632766 -1214.25722172938 55.272536501841046 -1214.25722172938 55.272536501841046 -1255.1727160385697 Z"/><text font-size="10" font-family="sans-serif" text-anchor="end" y="-1241.1727160385697" x="98.27253650184105">535,547,235 </text><text font-size="10" font-family="sans-serif" text-anchor="start" y="-1241.1727160385697" x="98.27253650184105">rows</text></g><g class="link"><path fill="#DFE1E3" d="M 140.80681220794366 -1137.1844104098486 C 140.80681220794366 -1128.0999047190382 144.1101269744669 -1128.0999047190382 144.1101269744669 -1087.1844104098486 L 64.3049763912349 -1087.1844104098486 C 64.3049763912349 -1096.268916100659 61.00166162471166 -1096.268916100659 61.00166162471166 -1137.1844104098486 Z"/><text font-size="10" font-family="sans-serif" text-anchor="end" y="-1123.1844104098486" x="100.90423691632766">121,636,689 </text><text font-size="10" font-family="sans-serif" text-anchor="start" y="-1123.1844104098486" x="100.90423691632766">rows</text></g><g class="link"><path fill="#DFE1E3" d="M 144.67220627903032 -1020.801788161706 C 144.67220627903032 -1011.7172824708955 148.61149778995485 -1011.7172824708955 148.61149778995485 -970.801788161706 L 67.68218859759602 -970.801788161706 C 67.68218859759602 -979.8862938525165 63.74289708667149 -979.8862938525165 63.74289708667149 -1020.801788161706 Z"/><text font-size="10" font-family="sans-serif" text-anchor="end" y="-1006.801788161706" x="104.2075516828509">159,177,141 </text><text font-size="10" font-family="sans-serif" text-anchor="start" y="-1006.801788161706" x="104.2075516828509">rows</text></g><g class="link"><path fill="#DFE1E3" d="M 116.32276738216564 -904.1070985535582 C 116.32276738216564 -884.3120535492658 120.0602918175527 -884.3120535492658 120.0602918175527 -854.1070985535582 L 103.70844344077233 -854.1070985535582 C 103.70844344077233 -873.9021435578506 99.97091900538527 -873.9021435578506 99.97091900538527 -904.1070985535582 Z"/><text font-size="10" font-family="sans-serif" text-anchor="end" y="-890.1070985535582" x="108.14684319377545">30 </text><text font-size="10" font-family="sans-serif" text-anchor="start" y="-890.1070985535582" x="108.14684319377545">rows</text></g><g class="link"><path fill="#DFE1E3" d="M 123.368862065804 -823.1777663101435 C 123.368862065804 -805.489022544155 131.80916528200478 -805.489022544155 131.80916528200478 -773.1777663101435 L 108.8401764087218 -773.1777663101435 C 108.8401764087218 -790.866510076132 100.39987319252103 -790.866510076132 100.39987319252103 -823.1777663101435 Z"/><text font-size="10" font-family="sans-serif" text-anchor="end" y="-809.1777663101435" x="111.88436762916251">150 </text><text font-size="10" font-family="sans-serif" text-anchor="start" y="-809.1777663101435" x="111.88436762916251">rows</text></g><g class="link"><path fill="#DFE1E3" d="M 131.34632419737696 -742.6991445896325 C 131.34632419737696 -724.7157470377058 216.21963855873437 -724.7157470377058 216.21963855873437 -692.6991445896325 L 194.17633185470703 -692.6991445896325 C 194.17633185470703 -710.6825421415592 109.30301749334961 -710.6825421415592 109.30301749334961 -742.6991445896325 Z"/><text font-size="10" font-family="sans-serif" text-anchor="end" y="-728.6991445896325" x="120.32467084536329">120 </text><text font-size="10" font-family="sans-serif" text-anchor="start" y="-728.6991445896325" x="120.32467084536329">rows</text></g><g class="link"><path fill="#DFE1E3" d="M 209.56119064629357 -674.6991445896325 C 209.56119064629357 -652.4768474433664 296.6297203177169 -652.4768474433664 296.6297203177169 -624.6991445896325 L 287.9033094385711 -624.6991445896325 C 287.9033094385711 -646.9214417358986 200.8347797671478 -646.9214417358986 200.8347797671478 -674.6991445896325 Z"/><text font-size="10" font-family="sans-serif" text-anchor="end" y="-660.6991445896325" x="205.1979852067207">4 </text><text font-size="10" font-family="sans-serif" text-anchor="start" y="-660.6991445896325" x="205.1979852067207">rows</text></g><g class="link"><path fill="#DFE1E3" d="M 349.69883739267345 -1069.1844104098486 C 349.69883739267345 -1022.7708021395113 350.32873515084174 -1022.7708021395113 350.32873515084174 -970.801788161706 L 341.602324271696 -970.801788161706 C 341.602324271696 -1017.2153964320435 340.9724265135277 -1017.2153964320435 340.9724265135277 -1069.1844104098486 Z"/><text font-size="10" font-family="sans-serif" text-anchor="end" y="-1055.1844104098486" x="345.3356319531006">4 </text><text font-size="10" font-family="sans-serif" text-anchor="start" y="-1055.1844104098486" x="345.3356319531006">rows</text></g><g class="link"><path fill="#DFE1E3" d="M 350.32873515084174 -947.3370073985517 C 350.32873515084174 -903.4997558297889 350.65968721775505 -903.4997558297889 350.65968721775505 -854.1070985535582 L 341.9332763386093 -854.1070985535582 C 341.9332763386093 -897.9443501223211 341.602324271696 -897.9443501223211 341.602324271696 -947.3370073985517 Z"/><text font-size="10" font-family="sans-serif" text-anchor="end" y="-933.3370073985517" x="345.96552971126886">4 </text><text font-size="10" font-family="sans-serif" text-anchor="start" y="-933.3370073985517" x="345.96552971126886">rows</text></g><g class="link"><path fill="#DFE1E3" d="M 354.3330425330695 -827.4108335212006 C 354.3330425330695 -805.4105333940668 359.37638595675907 -805.4105333940668 359.37638595675907 -773.1777663101435 L 343.30326444698443 -773.1777663101435 C 343.30326444698443 -795.1780664372775 338.25992102329485 -795.1780664372775 338.25992102329485 -827.4108335212006 Z"/><text font-size="10" font-family="sans-serif" text-anchor="end" y="-813.4108335212006" x="346.29648177818217">28 </text><text font-size="10" font-family="sans-serif" text-anchor="start" y="-813.4108335212006" x="346.29648177818217">rows</text></g><g class="link"><path fill="#DFE1E3" d="M 355.7030306414446 -746.8028675103727 C 355.7030306414446 -722.5287089037365 438.56119064629354 -722.5287089037365 438.56119064629354 -692.6991445896325 L 429.8347797671478 -692.6991445896325 C 429.8347797671478 -716.9733031962687 346.97661976229887 -716.9733031962687 346.97661976229887 -746.8028675103727 Z"/><text font-size="10" font-family="sans-serif" text-anchor="end" y="-732.8028675103727" x="351.33982520187175">4 </text><text font-size="10" font-family="sans-serif" text-anchor="start" y="-732.8028675103727" x="351.33982520187175">rows</text></g><g class="link"><path fill="#DFE1E3" d="M 591.3079634472393 -952.801788161706 C 591.3079634472393 -900.6767405038981 590.486251425049 -900.6767405038981 590.486251425049 -854.1070985535582 L 581.7598405459032 -854.1070985535582 C 581.7598405459032 -906.232146211366 582.5815525680936 -906.232146211366 582.5815525680936 -952.801788161706 Z"/><text font-size="10" font-family="sans-serif" text-anchor="end" y="-938.801788161706" x="586.9447580076665">4 </text><text font-size="10" font-family="sans-serif" text-anchor="start" y="-938.801788161706" x="586.9447580076665">rows</text></g><g class="link"><path fill="#DFE1E3" d="M 590.486251425049 -830.6423177904039 C 590.486251425049 -799.1323391965398 585.7030306414447 -799.1323391965398 585.7030306414447 -773.1777663101435 L 576.9766197622989 -773.1777663101435 C 576.9766197622989 -804.6877449040076 581.7598405459032 -804.6877449040076 581.7598405459032 -830.6423177904039 Z"/><text font-size="10" font-family="sans-serif" text-anchor="end" y="-816.6423177904039" x="586.1230459854761">4 </text><text font-size="10" font-family="sans-serif" text-anchor="start" y="-816.6423177904039" x="586.1230459854761">rows</text></g><g class="link"><path fill="#DFE1E3" d="M 582.3398252018717 -748.1311995002633 C 582.3398252018717 -719.7785522725803 440.56119064629354 -719.7785522725803 440.56119064629354 -692.6991445896325 L 438.56119064629354 -692.6991445896325 C 438.56119064629354 -721.0517918173155 580.3398252018717 -721.0517918173155 580.3398252018717 -748.1311995002633 Z"/><text font-size="10" font-family="sans-serif" text-anchor="end" y="-734.1311995002633" x="581.3398252018717">0 </text><text font-size="10" font-family="sans-serif" text-anchor="start" y="-734.1311995002633" x="581.3398252018717">rows</text></g><g class="link"><path fill="#DFE1E3" d="M 439.56119064629354 -674.6991445896325 C 439.56119064629354 -646.9214417358986 305.35613119686263 -646.9214417358986 305.35613119686263 -624.6991445896325 L 296.6297203177169 -624.6991445896325 C 296.6297203177169 -652.4768474433664 430.8347797671478 -652.4768474433664 430.8347797671478 -674.6991445896325 Z"/><text font-size="10" font-family="sans-serif" text-anchor="end" y="-660.6991445896325" x="435.19798520672066">4 </text><text font-size="10" font-family="sans-serif" text-anchor="start" y="-660.6991445896325" x="435.19798520672066">rows</text></g><g class="link"><path fill="#DFE1E3" d="M 300.99292575728975 -606.6991445896325 C 300.99292575728975 -578.9214417358986 278.4601335702932 -578.9214417358986 278.4601335702932 -556.6991445896325 L 269.7337226911474 -556.6991445896325 C 269.7337226911474 -584.4768474433664 292.266514878144 -584.4768474433664 292.266514878144 -606.6991445896325 Z"/><text font-size="10" font-family="sans-serif" text-anchor="end" y="-592.6991445896325" x="296.6297203177169">4 </text><text font-size="10" font-family="sans-serif" text-anchor="start" y="-592.6991445896325" x="296.6297203177169">rows</text></g><g class="link"><path fill="#DFE1E3" d="M 278.4601335702931 -530.0028795572749 C 278.4601335702931 -502.225176703541 257.84238138711487 -502.225176703541 257.84238138711487 -480.0028795572749 L 249.1159705079691 -480.0028795572749 C 249.1159705079691 -507.7805824110088 269.73372269114736 -507.7805824110088 269.73372269114736 -530.0028795572749 Z"/><text font-size="10" font-family="sans-serif" text-anchor="end" y="-516.0028795572749" x="274.09692813072024">4 </text><text font-size="10" font-family="sans-serif" text-anchor="start" y="-516.0028795572749" x="274.09692813072024">rows</text></g><g class="link"><path fill="#DFE1E3" d="M 257.84238138711487 -462.0028795572749 C 257.84238138711487 -434.225176703541 239.41742145823233 -434.225176703541 239.41742145823233 -412.0028795572749 L 230.6910105790866 -412.0028795572749 C 230.6910105790866 -439.7805824110088 249.1159705079691 -439.7805824110088 249.1159705079691 -462.0028795572749 Z"/><text font-size="10" font-family="sans-serif" text-anchor="end" y="-448.0028795572749" x="253.479175947542">4 </text><text font-size="10" font-family="sans-serif" text-anchor="start" y="-448.0028795572749" x="253.479175947542">rows</text></g><g class="link"><path fill="#DFE1E3" d="M 239.41742145823233 -390 C 239.41742145823233 -362.2222971462661 223.46083354131892 -362.2222971462661 223.46083354131892 -340 L 214.7344226621732 -340 C 214.7344226621732 -367.7777028537339 230.69101057908657 -367.7777028537339 230.69101057908657 -390 Z"/><text font-size="10" font-family="sans-serif" text-anchor="end" y="-376" x="235.05421601865945">4 </text><text font-size="10" font-family="sans-serif" text-anchor="start" y="-376" x="235.05421601865945">rows</text></g><g class="link"><path fill="#DFE1E3" d="M 223.46083354131892 -322 C 223.46083354131892 -294.2222971462661 210.27951179331674 -294.2222971462661 210.27951179331674 -272 L 201.553100914171 -272 C 201.553100914171 -299.7777028537339 214.73442266217316 -299.7777028537339 214.73442266217316 -322 Z"/><text font-size="10" font-family="sans-serif" text-anchor="end" y="-308" x="219.09762810174604">4 </text><text font-size="10" font-family="sans-serif" text-anchor="start" y="-308" x="219.09762810174604">rows</text></g><g class="link"><path fill="#DFE1E3" d="M 210.27951179331677 -254 C 210.27951179331677 -226.22229714626613 200.1550999245902 -226.22229714626613 200.1550999245902 -204 L 191.42868904544446 -204 C 191.42868904544446 -231.77770285373387 201.553100914171 -231.77770285373387 201.553100914171 -254 Z"/><text font-size="10" font-family="sans-serif" text-anchor="end" y="-240" x="205.9163063537439">4 </text><text font-size="10" font-family="sans-serif" text-anchor="start" y="-240" x="205.9163063537439">rows</text></g><g class="link"><path fill="#DFE1E3" d="M 200.1550999245902 -186 C 200.1550999245902 -158.22229714626613 193.30732146733206 -158.22229714626613 193.30732146733206 -136 L 184.58091058818633 -136 C 184.58091058818633 -163.77770285373387 191.42868904544443 -163.77770285373387 191.42868904544443 -186 Z"/><text font-size="10" font-family="sans-serif" text-anchor="end" y="-172" x="195.7918944850173">4 </text><text font-size="10" font-family="sans-serif" text-anchor="start" y="-172" x="195.7918944850173">rows</text></g><g class="link"><path fill="#DFE1E3" d="M 193.3073214673321 -118 C 193.3073214673321 -90.22229714626613 189.87022057868373 -90.22229714626613 189.87022057868373 -68 L 181.143809699538 -68 C 181.143809699538 -95.77770285373387 184.58091058818633 -95.77770285373387 184.58091058818633 -118 Z"/><text font-size="10" font-family="sans-serif" text-anchor="end" y="-104" x="188.9441160277592">4 </text><text font-size="10" font-family="sans-serif" text-anchor="start" y="-104" x="188.9441160277592">rows</text></g></g><g class="layer operators"><g class="operator" transform="translate(95.50701904296875,-68)"><rect class="background" fill="#ffffff" ry="4" rx="4" height="18" width="180"/><g class="header" pointer-events="all"><path class="banner" d="M 176 0 A 4 4 0 0 1 180 4 L 180 14 A 4 4 0 0 1 176 18 L 4 18 A 4 4 0 0 1 0 14 L 0 4 A 4 4 0 0 1 4 0 Z" style="fill: rgb(198, 219, 239);"/><text class="title" font-size="11" font-family="sans-serif" x="18" y="13" fill="#000000">Result</text></g><path class="cost" fill="#F25A29" d="M 176 18 A 4 4 0 0 1 176 18 L 4 18 A 4 4 0 0 1 4 18 Z"/><rect class="outline" stroke-width="1" fill="none" ry="4" rx="4" height="18" width="180" style="stroke: rgb(138, 153, 167);"/></g><g class="operator" transform="translate(98.9441146850586,-136)"><rect class="background" fill="#ffffff" ry="4" rx="4" height="18" width="180"/><g class="header" pointer-events="all"><path class="banner" d="M 176 0 A 4 4 0 0 1 180 4 L 180 14 A 4 4 0 0 1 176 18 L 4 18 A 4 4 0 0 1 0 14 L 0 4 A 4 4 0 0 1 4 0 Z" style="fill: rgb(198, 219, 239);"/><path class="expand" fill="#000000" d="M -5 -10 L 8.66 0 L -5 10 Z" transform="translate(9, 9) rotate(0) scale(0.5)"/><text class="title" font-size="11" font-family="sans-serif" x="18" y="13" fill="#000000">ProduceResults</text></g><path class="cost" fill="#F25A29" d="M 176 18 A 4 4 0 0 1 176 18 L 4 18 A 4 4 0 0 1 4 18 Z"/><rect class="outline" stroke-width="1" fill="none" ry="4" rx="4" height="18" width="180" style="stroke: rgb(138, 153, 167);"/></g><g class="operator" transform="translate(105.7918930053711,-204)"><rect class="background" fill="#ffffff" ry="4" rx="4" height="18" width="180"/><g class="header" pointer-events="all"><path class="banner" d="M 176 0 A 4 4 0 0 1 180 4 L 180 14 A 4 4 0 0 1 176 18 L 4 18 A 4 4 0 0 1 0 14 L 0 4 A 4 4 0 0 1 4 0 Z" style="fill: rgb(107, 174, 214);"/><path class="expand" fill="#FFFFFF" d="M -5 -10 L 8.66 0 L -5 10 Z" transform="translate(9, 9) rotate(0) scale(0.5)"/><text class="title" font-size="11" font-family="sans-serif" x="18" y="13" fill="#FFFFFF">Projection</text></g><path class="cost" fill="#F25A29" d="M 176 18 A 4 4 0 0 1 176 18 L 4 18 A 4 4 0 0 1 4 18 Z"/><rect class="outline" stroke-width="1" fill="none" ry="4" rx="4" height="18" width="180" style="stroke: rgb(74, 121, 149);"/></g><g class="operator" transform="translate(115.91630554199219,-272)"><rect class="background" fill="#ffffff" ry="4" rx="4" height="18" width="180"/><g class="header" pointer-events="all"><path class="banner" d="M 176 0 A 4 4 0 0 1 180 4 L 180 14 A 4 4 0 0 1 176 18 L 4 18 A 4 4 0 0 1 0 14 L 0 4 A 4 4 0 0 1 4 0 Z" style="fill: rgb(107, 174, 214);"/><path class="expand" fill="#FFFFFF" d="M -5 -10 L 8.66 0 L -5 10 Z" transform="translate(9, 9) rotate(0) scale(0.5)"/><text class="title" font-size="11" font-family="sans-serif" x="18" y="13" fill="#FFFFFF">Top</text></g><path class="cost" fill="#F25A29" d="M 176 18 A 4 4 0 0 1 176 18 L 4 18 A 4 4 0 0 1 4 18 Z"/><rect class="outline" stroke-width="1" fill="none" ry="4" rx="4" height="18" width="180" style="stroke: rgb(74, 121, 149);"/></g><g class="operator" transform="translate(129.09762573242188,-340)"><rect class="background" fill="#ffffff" ry="4" rx="4" height="18" width="180"/><g class="header" pointer-events="all"><path class="banner" d="M 176 0 A 4 4 0 0 1 180 4 L 180 14 A 4 4 0 0 1 176 18 L 4 18 A 4 4 0 0 1 0 14 L 0 4 A 4 4 0 0 1 4 0 Z" style="fill: rgb(8, 48, 107);"/><path class="expand" fill="#FFFFFF" d="M -5 -10 L 8.66 0 L -5 10 Z" transform="translate(9, 9) rotate(0) scale(0.5)"/><text class="title" font-size="11" font-family="sans-serif" x="18" y="13" fill="#FFFFFF">EagerAggregation</text></g><path class="cost" fill="#F25A29" d="M 176 18 A 4 4 0 0 1 176 18 L 4 18 A 4 4 0 0 1 4 18 Z"/><rect class="outline" stroke-width="1" fill="none" ry="4" rx="4" height="18" width="180" style="stroke: rgb(5, 33, 74);"/></g><g class="operator" transform="translate(145.05421447753906,-412.00286865234375)"><rect class="background" fill="#ffffff" ry="4" rx="4" height="22.002879557274902" width="180"/><g class="header" pointer-events="all"><path class="banner" d="M 176 0 A 4 4 0 0 1 180 4 L 180 14 A 4 4 0 0 1 180 18 L 0 18 A 4 4 0 0 1 0 14 L 0 4 A 4 4 0 0 1 4 0 Z" style="fill: rgb(107, 174, 214);"/><path class="expand" fill="#FFFFFF" d="M -5 -10 L 8.66 0 L -5 10 Z" transform="translate(9, 9) rotate(0) scale(0.5)"/><text class="title" font-size="11" font-family="sans-serif" x="18" y="13" fill="#FFFFFF">Projection</text></g><path class="cost" fill="#F25A29" d="M 0 18 L 180 18 L 180 18.002879557274902 A 4 4 0 0 1 176 22.002879557274902 L 4 22.002879557274902 A 4 4 0 0 1 0 18.002879557274902 Z"/><rect class="outline" stroke-width="1" fill="none" ry="4" rx="4" height="22.002879557274902" width="180" style="stroke: rgb(74, 121, 149);"/></g><g class="operator" transform="translate(163.4791717529297,-480.00286865234375)"><rect class="background" fill="#ffffff" ry="4" rx="4" height="18" width="180"/><g class="header" pointer-events="all"><path class="banner" d="M 176 0 A 4 4 0 0 1 180 4 L 180 14 A 4 4 0 0 1 176 18 L 4 18 A 4 4 0 0 1 0 14 L 0 4 A 4 4 0 0 1 4 0 Z" style="fill: rgb(33, 113, 181);"/><path class="expand" fill="#FFFFFF" d="M -5 -10 L 8.66 0 L -5 10 Z" transform="translate(9, 9) rotate(0) scale(0.5)"/><text class="title" font-size="11" font-family="sans-serif" x="18" y="13" fill="#FFFFFF">Filter</text></g><path class="cost" fill="#F25A29" d="M 176 18 A 4 4 0 0 1 176 18 L 4 18 A 4 4 0 0 1 4 18 Z"/><rect class="outline" stroke-width="1" fill="none" ry="4" rx="4" height="18" width="180" style="stroke: rgb(23, 79, 126);"/></g><g class="operator" transform="translate(184.096923828125,-556.6991577148438)"><rect class="background" fill="#ffffff" ry="4" rx="4" height="26.696265032357605" width="180"/><g class="header" pointer-events="all"><path class="banner" d="M 176 0 A 4 4 0 0 1 180 4 L 180 14 A 4 4 0 0 1 180 18 L 0 18 A 4 4 0 0 1 0 14 L 0 4 A 4 4 0 0 1 4 0 Z" style="fill: rgb(8, 81, 156);"/><path class="expand" fill="#FFFFFF" d="M -5 -10 L 8.66 0 L -5 10 Z" transform="translate(9, 9) rotate(0) scale(0.5)"/><text class="title" font-size="11" font-family="sans-serif" x="18" y="13" fill="#FFFFFF">Expand(Into)</text></g><path class="cost" fill="#F25A29" d="M 0 18 L 180 18 L 180 22.696265032357605 A 4 4 0 0 1 176 26.696265032357605 L 4 26.696265032357605 A 4 4 0 0 1 0 22.696265032357605 Z"/><rect class="outline" stroke-width="1" fill="none" ry="4" rx="4" height="26.696265032357605" width="180" style="stroke: rgb(5, 56, 109);"/></g><g class="operator" transform="translate(206.6297149658203,-624.6991577148438)"><rect class="background" fill="#ffffff" ry="4" rx="4" height="18" width="180"/><g class="header" pointer-events="all"><path class="banner" d="M 176 0 A 4 4 0 0 1 180 4 L 180 14 A 4 4 0 0 1 176 18 L 4 18 A 4 4 0 0 1 0 14 L 0 4 A 4 4 0 0 1 4 0 Z" style="fill: rgb(33, 113, 181);"/><path class="expand" fill="#FFFFFF" d="M -5 -10 L 8.66 0 L -5 10 Z" transform="translate(9, 9) rotate(0) scale(0.5)"/><text class="title" font-size="11" font-family="sans-serif" x="18" y="13" fill="#FFFFFF">Apply</text></g><path class="cost" fill="#F25A29" d="M 176 18 A 4 4 0 0 1 176 18 L 4 18 A 4 4 0 0 1 4 18 Z"/><rect class="outline" stroke-width="1" fill="none" ry="4" rx="4" height="18" width="180" style="stroke: rgb(23, 79, 126);"/></g><g class="operator" transform="translate(115.19798278808594,-692.6991577148438)"><rect class="background" fill="#ffffff" ry="4" rx="4" height="18" width="180"/><g class="header" pointer-events="all"><path class="banner" d="M 176 0 A 4 4 0 0 1 180 4 L 180 14 A 4 4 0 0 1 176 18 L 4 18 A 4 4 0 0 1 0 14 L 0 4 A 4 4 0 0 1 4 0 Z" style="fill: rgb(33, 113, 181);"/><path class="expand" fill="#FFFFFF" d="M -5 -10 L 8.66 0 L -5 10 Z" transform="translate(9, 9) rotate(0) scale(0.5)"/><text class="title" font-size="11" font-family="sans-serif" x="18" y="13" fill="#FFFFFF">Distinct</text></g><path class="cost" fill="#F25A29" d="M 176 18 A 4 4 0 0 1 176 18 L 4 18 A 4 4 0 0 1 4 18 Z"/><rect class="outline" stroke-width="1" fill="none" ry="4" rx="4" height="18" width="180" style="stroke: rgb(23, 79, 126);"/></g><g class="operator" transform="translate(30.324670791625977,-773.1777954101562)"><rect class="background" fill="#ffffff" ry="4" rx="4" height="30.47862172051098" width="180"/><g class="header" pointer-events="all"><path class="banner" d="M 176 0 A 4 4 0 0 1 180 4 L 180 14 A 4 4 0 0 1 180 18 L 0 18 A 4 4 0 0 1 0 14 L 0 4 A 4 4 0 0 1 4 0 Z" style="fill: rgb(33, 113, 181);"/><path class="expand" fill="#FFFFFF" d="M -5 -10 L 8.66 0 L -5 10 Z" transform="translate(9, 9) rotate(0) scale(0.5)"/><text class="title" font-size="11" font-family="sans-serif" x="18" y="13" fill="#FFFFFF">Filter</text></g><path class="cost" fill="#F25A29" d="M 0 18 L 180 18 L 180 26.47862172051098 A 4 4 0 0 1 176 30.47862172051098 L 4 30.47862172051098 A 4 4 0 0 1 0 26.47862172051098 Z"/><rect class="outline" stroke-width="1" fill="none" ry="4" rx="4" height="30.47862172051098" width="180" style="stroke: rgb(23, 79, 126);"/></g><g class="operator" transform="translate(21.884366989135742,-854.1071166992188)"><rect class="background" fill="#ffffff" ry="4" rx="4" height="30.92933224341469" width="180"/><g class="header" pointer-events="all"><path class="banner" d="M 176 0 A 4 4 0 0 1 180 4 L 180 14 A 4 4 0 0 1 180 18 L 0 18 A 4 4 0 0 1 0 14 L 0 4 A 4 4 0 0 1 4 0 Z" style="fill: rgb(8, 81, 156);"/><path class="expand" fill="#FFFFFF" d="M -5 -10 L 8.66 0 L -5 10 Z" transform="translate(9, 9) rotate(0) scale(0.5)"/><text class="title" font-size="11" font-family="sans-serif" x="18" y="13" fill="#FFFFFF">Expand(All)</text></g><path class="cost" fill="#F25A29" d="M 0 18 L 180 18 L 180 26.92933224341469 A 4 4 0 0 1 176 30.92933224341469 L 4 30.92933224341469 A 4 4 0 0 1 0 26.92933224341469 Z"/><rect class="outline" stroke-width="1" fill="none" ry="4" rx="4" height="30.92933224341469" width="180" style="stroke: rgb(5, 56, 109);"/></g><g class="operator" transform="translate(18.14684295654297,-970.8017578125)"><rect class="background" fill="#ffffff" ry="4" rx="4" height="66.69468960814775" width="180"/><g class="header" pointer-events="all"><path class="banner" d="M 176 0 A 4 4 0 0 1 180 4 L 180 14 A 4 4 0 0 1 180 18 L 0 18 A 4 4 0 0 1 0 14 L 0 4 A 4 4 0 0 1 4 0 Z" style="fill: rgb(33, 113, 181);"/><path class="expand" fill="#FFFFFF" d="M -5 -10 L 8.66 0 L -5 10 Z" transform="translate(9, 9) rotate(0) scale(0.5)"/><text class="title" font-size="11" font-family="sans-serif" x="18" y="13" fill="#FFFFFF">Filter</text></g><path class="cost" fill="#F25A29" d="M 0 18 L 180 18 L 180 62.694689608147755 A 4 4 0 0 1 176 66.69468960814775 L 4 66.69468960814775 A 4 4 0 0 1 0 62.694689608147755 Z"/><text class="cost" font-size="10" font-family="sans-serif" fill="white" x="90" text-anchor="end" y="32">318,354,282 </text><text class="cost" font-size="10" font-family="sans-serif" fill="white" x="90" text-anchor="start" y="32">db hits</text><rect class="outline" stroke-width="1" fill="none" ry="4" rx="4" height="66.69468960814775" width="180" style="stroke: rgb(23, 79, 126);"/></g><g class="operator" transform="translate(14.207551956176758,-1087.1844482421875)"><rect class="background" fill="#ffffff" ry="4" rx="4" height="66.38262224814262" width="180"/><g class="header" pointer-events="all"><path class="banner" d="M 176 0 A 4 4 0 0 1 180 4 L 180 14 A 4 4 0 0 1 180 18 L 0 18 A 4 4 0 0 1 0 14 L 0 4 A 4 4 0 0 1 4 0 Z" style="fill: rgb(8, 81, 156);"/><path class="expand" fill="#FFFFFF" d="M -5 -10 L 8.66 0 L -5 10 Z" transform="translate(9, 9) rotate(0) scale(0.5)"/><text class="title" font-size="11" font-family="sans-serif" x="18" y="13" fill="#FFFFFF">Expand(All)</text></g><path class="cost" fill="#F25A29" d="M 0 18 L 180 18 L 180 62.382622248142624 A 4 4 0 0 1 176 66.38262224814262 L 4 66.38262224814262 A 4 4 0 0 1 0 62.382622248142624 Z"/><text class="cost" font-size="10" font-family="sans-serif" fill="white" x="90" text-anchor="end" y="32">280,813,830 </text><text class="cost" font-size="10" font-family="sans-serif" fill="white" x="90" text-anchor="start" y="32">db hits</text><rect class="outline" stroke-width="1" fill="none" ry="4" rx="4" height="66.38262224814262" width="180" style="stroke: rgb(5, 56, 109);"/></g><g class="operator" transform="translate(10.904236793518066,-1205.1727294921875)"><rect class="background" fill="#ffffff" ry="4" rx="4" height="67.98830562872112" width="180"/><g class="header" pointer-events="all"><path class="banner" d="M 176 0 A 4 4 0 0 1 180 4 L 180 14 A 4 4 0 0 1 180 18 L 0 18 A 4 4 0 0 1 0 14 L 0 4 A 4 4 0 0 1 4 0 Z" style="fill: rgb(33, 113, 181);"/><path class="expand" fill="#FFFFFF" d="M -5 -10 L 8.66 0 L -5 10 Z" transform="translate(9, 9) rotate(0) scale(0.5)"/><text class="title" font-size="11" font-family="sans-serif" x="18" y="13" fill="#FFFFFF">Filter</text></g><path class="cost" fill="#F25A29" d="M 0 17.999999999999993 L 180 17.999999999999993 L 180 63.98830562872112 A 4 4 0 0 1 176 67.98830562872112 L 4 67.98830562872112 A 4 4 0 0 1 0 63.98830562872112 Z"/><text class="cost" font-size="10" font-family="sans-serif" fill="white" x="90" text-anchor="end" y="31.999999999999993">535,547,235 </text><text class="cost" font-size="10" font-family="sans-serif" fill="white" x="90" text-anchor="start" y="31.999999999999993">db hits</text><rect class="outline" stroke-width="1" fill="none" ry="4" rx="4" height="67.98830562872112" width="180" style="stroke: rgb(23, 79, 126);"/></g><g class="operator" transform="translate(8.272536277770996,-1323.1727294921875)"><rect class="background" fill="#ffffff" ry="4" rx="4" height="68.00000000462231" width="180"/><g class="header" pointer-events="all"><path class="banner" d="M 176 0 A 4 4 0 0 1 180 4 L 180 14 A 4 4 0 0 1 180 18 L 0 18 A 4 4 0 0 1 0 14 L 0 4 A 4 4 0 0 1 4 0 Z" style="fill: rgb(8, 81, 156);"/><path class="expand" fill="#FFFFFF" d="M -5 -10 L 8.66 0 L -5 10 Z" transform="translate(9, 9) rotate(0) scale(0.5)"/><text class="title" font-size="11" font-family="sans-serif" x="18" y="13" fill="#FFFFFF">Expand(All)</text></g><path class="cost" fill="#F25A29" d="M 0 17.999999999999993 L 180 17.999999999999993 L 180 64.00000000462231 A 4 4 0 0 1 176 68.00000000462231 L 4 68.00000000462231 A 4 4 0 0 1 0 64.00000000462231 Z"/><text class="cost" font-size="10" font-family="sans-serif" fill="white" x="90" text-anchor="end" y="31.999999999999993">538,071,285 </text><text class="cost" font-size="10" font-family="sans-serif" fill="white" x="90" text-anchor="start" y="31.999999999999993">db hits</text><rect class="outline" stroke-width="1" fill="none" ry="4" rx="4" height="68.00000000462231" width="180" style="stroke: rgb(5, 56, 109);"/></g><g class="operator" transform="translate(6.258056163787842,-1427.83642578125)"><rect class="background" fill="#ffffff" ry="4" rx="4" height="54.663701664803824" width="180"/><g class="header" pointer-events="all"><path class="banner" d="M 176 0 A 4 4 0 0 1 180 4 L 180 14 A 4 4 0 0 1 180 18 L 0 18 A 4 4 0 0 1 0 14 L 0 4 A 4 4 0 0 1 4 0 Z" style="fill: rgb(33, 113, 181);"/><path class="expand" fill="#FFFFFF" d="M -5 -10 L 8.66 0 L -5 10 Z" transform="translate(9, 9) rotate(0) scale(0.5)"/><text class="title" font-size="11" font-family="sans-serif" x="18" y="13" fill="#FFFFFF">Filter</text></g><path class="cost" fill="#F25A29" d="M 0 18 L 180 18 L 180 50.663701664803824 A 4 4 0 0 1 176 54.663701664803824 L 4 54.663701664803824 A 4 4 0 0 1 0 50.663701664803824 Z"/><text class="cost" font-size="10" font-family="sans-serif" fill="white" x="90" text-anchor="end" y="32">2,524,050 </text><text class="cost" font-size="10" font-family="sans-serif" fill="white" x="90" text-anchor="start" y="32">db hits</text><rect class="outline" stroke-width="1" fill="none" ry="4" rx="4" height="54.663701664803824" width="180" style="stroke: rgb(23, 79, 126);"/></g><g class="operator" transform="translate(4.808162689208984,-1532.7247314453125)"><rect class="background" fill="#ffffff" ry="4" rx="4" height="54.88834131118336" width="180"/><g class="header" pointer-events="all"><path class="banner" d="M 176 0 A 4 4 0 0 1 180 4 L 180 14 A 4 4 0 0 1 180 18 L 0 18 A 4 4 0 0 1 0 14 L 0 4 A 4 4 0 0 1 4 0 Z" style="fill: rgb(8, 81, 156);"/><path class="expand" fill="#FFFFFF" d="M -5 -10 L 8.66 0 L -5 10 Z" transform="translate(9, 9) rotate(0) scale(0.5)"/><text class="title" font-size="11" font-family="sans-serif" x="18" y="13" fill="#FFFFFF">VarLengthExpand(All)</text></g><path class="cost" fill="#F25A29" d="M 0 18 L 180 18 L 180 50.88834131118336 A 4 4 0 0 1 176 54.88834131118336 L 4 54.88834131118336 A 4 4 0 0 1 0 50.88834131118336 Z"/><text class="cost" font-size="10" font-family="sans-serif" fill="white" x="90" text-anchor="end" y="32">2,762,637 </text><text class="cost" font-size="10" font-family="sans-serif" fill="white" x="90" text-anchor="start" y="32">db hits</text><rect class="outline" stroke-width="1" fill="none" ry="4" rx="4" height="54.88834131118336" width="180" style="stroke: rgb(5, 56, 109);"/></g><g class="operator" transform="translate(3.8738746643066406,-1623.6220703125)"><rect class="background" fill="#ffffff" ry="4" rx="4" height="40.89733532365683" width="180"/><g class="header" pointer-events="all"><path class="banner" d="M 176 0 A 4 4 0 0 1 180 4 L 180 14 A 4 4 0 0 1 180 18 L 0 18 A 4 4 0 0 1 0 14 L 0 4 A 4 4 0 0 1 4 0 Z" style="fill: rgb(33, 113, 181);"/><path class="expand" fill="#FFFFFF" d="M -5 -10 L 8.66 0 L -5 10 Z" transform="translate(9, 9) rotate(0) scale(0.5)"/><text class="title" font-size="11" font-family="sans-serif" x="18" y="13" fill="#FFFFFF">Filter</text></g><path class="cost" fill="#F25A29" d="M 0 18 L 180 18 L 180 36.89733532365683 A 4 4 0 0 1 176 40.89733532365683 L 4 40.89733532365683 A 4 4 0 0 1 0 36.89733532365683 Z"/><text class="cost" font-size="10" font-family="sans-serif" fill="white" x="90" text-anchor="end" y="32">9,959 </text><text class="cost" font-size="10" font-family="sans-serif" fill="white" x="90" text-anchor="start" y="32">db hits</text><rect class="outline" stroke-width="1" fill="none" ry="4" rx="4" height="40.89733532365683" width="180" style="stroke: rgb(23, 79, 126);"/></g><g class="operator" transform="translate(3.417095422744751,-1714.5196533203125)"><rect class="background" fill="#ffffff" ry="4" rx="4" height="40.89758502285967" width="180"/><g class="header" pointer-events="all"><path class="banner" d="M 176 0 A 4 4 0 0 1 180 4 L 180 14 A 4 4 0 0 1 180 18 L 0 18 A 4 4 0 0 1 0 14 L 0 4 A 4 4 0 0 1 4 0 Z" style="fill: rgb(158, 202, 225);"/><path class="expand" fill="#000000" d="M -5 -10 L 8.66 0 L -5 10 Z" transform="translate(9, 9) rotate(0) scale(0.5)"/><text class="title" font-size="11" font-family="sans-serif" x="18" y="13" fill="#000000">NodeByLabelScan</text></g><path class="cost" fill="#F25A29" d="M 0 18 L 180 18 L 180 36.89758502285967 A 4 4 0 0 1 176 40.89758502285967 L 4 40.89758502285967 A 4 4 0 0 1 0 36.89758502285967 Z"/><text class="cost" font-size="10" font-family="sans-serif" fill="white" x="90" text-anchor="end" y="32">9,960 </text><text class="cost" font-size="10" font-family="sans-serif" fill="white" x="90" text-anchor="start" y="32">db hits</text><rect class="outline" stroke-width="1" fill="none" ry="4" rx="4" height="40.89758502285967" width="180" style="stroke: rgb(110, 141, 157);"/></g><g class="operator" transform="translate(345.197998046875,-692.6991577148438)"><rect class="background" fill="#ffffff" ry="4" rx="4" height="18" width="180"/><g class="header" pointer-events="all"><path class="banner" d="M 176 0 A 4 4 0 0 1 180 4 L 180 14 A 4 4 0 0 1 176 18 L 4 18 A 4 4 0 0 1 0 14 L 0 4 A 4 4 0 0 1 4 0 Z" style="fill: rgb(33, 113, 181);"/><path class="expand" fill="#FFFFFF" d="M -5 -10 L 8.66 0 L -5 10 Z" transform="translate(9, 9) rotate(0) scale(0.5)"/><text class="title" font-size="11" font-family="sans-serif" x="18" y="13" fill="#FFFFFF">SemiApply</text></g><path class="cost" fill="#F25A29" d="M 176 18 A 4 4 0 0 1 176 18 L 4 18 A 4 4 0 0 1 4 18 Z"/><rect class="outline" stroke-width="1" fill="none" ry="4" rx="4" height="18" width="180" style="stroke: rgb(23, 79, 126);"/></g><g class="operator" transform="translate(261.3398132324219,-773.1777954101562)"><rect class="background" fill="#ffffff" ry="4" rx="4" height="26.374898799770744" width="180"/><g class="header" pointer-events="all"><path class="banner" d="M 176 0 A 4 4 0 0 1 180 4 L 180 14 A 4 4 0 0 1 180 18 L 0 18 A 4 4 0 0 1 0 14 L 0 4 A 4 4 0 0 1 4 0 Z" style="fill: rgb(33, 113, 181);"/><path class="expand" fill="#FFFFFF" d="M -5 -10 L 8.66 0 L -5 10 Z" transform="translate(9, 9) rotate(0) scale(0.5)"/><text class="title" font-size="11" font-family="sans-serif" x="18" y="13" fill="#FFFFFF">Filter</text></g><path class="cost" fill="#F25A29" d="M 0 18 L 180 18 L 180 22.374898799770744 A 4 4 0 0 1 176 26.374898799770744 L 4 26.374898799770744 A 4 4 0 0 1 0 22.374898799770744 Z"/><rect class="outline" stroke-width="1" fill="none" ry="4" rx="4" height="26.374898799770744" width="180" style="stroke: rgb(23, 79, 126);"/></g><g class="operator" transform="translate(256.2964782714844,-854.1071166992188)"><rect class="background" fill="#ffffff" ry="4" rx="4" height="26.696265032357605" width="180"/><g class="header" pointer-events="all"><path class="banner" d="M 176 0 A 4 4 0 0 1 180 4 L 180 14 A 4 4 0 0 1 180 18 L 0 18 A 4 4 0 0 1 0 14 L 0 4 A 4 4 0 0 1 4 0 Z" style="fill: rgb(8, 81, 156);"/><path class="expand" fill="#FFFFFF" d="M -5 -10 L 8.66 0 L -5 10 Z" transform="translate(9, 9) rotate(0) scale(0.5)"/><text class="title" font-size="11" font-family="sans-serif" x="18" y="13" fill="#FFFFFF">Expand(All)</text></g><path class="cost" fill="#F25A29" d="M 0 18 L 180 18 L 180 22.696265032357605 A 4 4 0 0 1 176 26.696265032357605 L 4 26.696265032357605 A 4 4 0 0 1 0 22.696265032357605 Z"/><rect class="outline" stroke-width="1" fill="none" ry="4" rx="4" height="26.696265032357605" width="180" style="stroke: rgb(5, 56, 109);"/></g><g class="operator" transform="translate(255.9655303955078,-970.8017578125)"><rect class="background" fill="#ffffff" ry="4" rx="4" height="23.464780763154334" width="180"/><g class="header" pointer-events="all"><path class="banner" d="M 176 0 A 4 4 0 0 1 180 4 L 180 14 A 4 4 0 0 1 180 18 L 0 18 A 4 4 0 0 1 0 14 L 0 4 A 4 4 0 0 1 4 0 Z" style="fill: rgb(33, 113, 181);"/><path class="expand" fill="#FFFFFF" d="M -5 -10 L 8.66 0 L -5 10 Z" transform="translate(9, 9) rotate(0) scale(0.5)"/><text class="title" font-size="11" font-family="sans-serif" x="18" y="13" fill="#FFFFFF">Filter</text></g><path class="cost" fill="#F25A29" d="M 0 18 L 180 18 L 180 19.464780763154334 A 4 4 0 0 1 176 23.464780763154334 L 4 23.464780763154334 A 4 4 0 0 1 0 19.464780763154334 Z"/><rect class="outline" stroke-width="1" fill="none" ry="4" rx="4" height="23.464780763154334" width="180" style="stroke: rgb(23, 79, 126);"/></g><g class="operator" transform="translate(255.33563232421875,-1087.1844482421875)"><rect class="background" fill="#ffffff" ry="4" rx="4" height="18" width="180"/><g class="header" pointer-events="all"><path class="banner" d="M 176 0 A 4 4 0 0 1 180 4 L 180 14 A 4 4 0 0 1 176 18 L 4 18 A 4 4 0 0 1 0 14 L 0 4 A 4 4 0 0 1 4 0 Z" style="fill: rgb(158, 202, 225);"/><path class="expand" fill="#000000" d="M -5 -10 L 8.66 0 L -5 10 Z" transform="translate(9, 9) rotate(0) scale(0.5)"/><text class="title" font-size="11" font-family="sans-serif" x="18" y="13" fill="#000000">Argument</text></g><path class="cost" fill="#F25A29" d="M 176 18 A 4 4 0 0 1 176 18 L 4 18 A 4 4 0 0 1 4 18 Z"/><rect class="outline" stroke-width="1" fill="none" ry="4" rx="4" height="18" width="180" style="stroke: rgb(110, 141, 157);"/></g><g class="operator" transform="translate(491.3398132324219,-773.1777954101562)"><rect class="background" fill="#ffffff" ry="4" rx="4" height="25.046566809880254" width="180"/><g class="header" pointer-events="all"><path class="banner" d="M 176 0 A 4 4 0 0 1 180 4 L 180 14 A 4 4 0 0 1 180 18 L 0 18 A 4 4 0 0 1 0 14 L 0 4 A 4 4 0 0 1 4 0 Z" style="fill: rgb(8, 81, 156);"/><path class="expand" fill="#FFFFFF" d="M -5 -10 L 8.66 0 L -5 10 Z" transform="translate(9, 9) rotate(0) scale(0.5)"/><text class="title" font-size="11" font-family="sans-serif" x="18" y="13" fill="#FFFFFF">Expand(Into)</text></g><path class="cost" fill="#F25A29" d="M 0 18 L 180 18 L 180 21.046566809880254 A 4 4 0 0 1 176 25.046566809880254 L 4 25.046566809880254 A 4 4 0 0 1 0 21.046566809880254 Z"/><rect class="outline" stroke-width="1" fill="none" ry="4" rx="4" height="25.046566809880254" width="180" style="stroke: rgb(5, 56, 109);"/></g><g class="operator" transform="translate(496.123046875,-854.1071166992188)"><rect class="background" fill="#ffffff" ry="4" rx="4" height="23.464780763154334" width="180"/><g class="header" pointer-events="all"><path class="banner" d="M 176 0 A 4 4 0 0 1 180 4 L 180 14 A 4 4 0 0 1 180 18 L 0 18 A 4 4 0 0 1 0 14 L 0 4 A 4 4 0 0 1 4 0 Z" style="fill: rgb(33, 113, 181);"/><path class="expand" fill="#FFFFFF" d="M -5 -10 L 8.66 0 L -5 10 Z" transform="translate(9, 9) rotate(0) scale(0.5)"/><text class="title" font-size="11" font-family="sans-serif" x="18" y="13" fill="#FFFFFF">Filter</text></g><path class="cost" fill="#F25A29" d="M 0 18 L 180 18 L 180 19.464780763154334 A 4 4 0 0 1 176 23.464780763154334 L 4 23.464780763154334 A 4 4 0 0 1 0 19.464780763154334 Z"/><rect class="outline" stroke-width="1" fill="none" ry="4" rx="4" height="23.464780763154334" width="180" style="stroke: rgb(23, 79, 126);"/></g><g class="operator" transform="translate(496.94476318359375,-970.8017578125)"><rect class="background" fill="#ffffff" ry="4" rx="4" height="18" width="180"/><g class="header" pointer-events="all"><path class="banner" d="M 176 0 A 4 4 0 0 1 180 4 L 180 14 A 4 4 0 0 1 176 18 L 4 18 A 4 4 0 0 1 0 14 L 0 4 A 4 4 0 0 1 4 0 Z" style="fill: rgb(158, 202, 225);"/><path class="expand" fill="#000000" d="M -5 -10 L 8.66 0 L -5 10 Z" transform="translate(9, 9) rotate(0) scale(0.5)"/><text class="title" font-size="11" font-family="sans-serif" x="18" y="13" fill="#000000">Argument</text></g><path class="cost" fill="#F25A29" d="M 176 18 A 4 4 0 0 1 176 18 L 4 18 A 4 4 0 0 1 4 18 Z"/><rect class="outline" stroke-width="1" fill="none" ry="4" rx="4" height="18" width="180" style="stroke: rgb(110, 141, 157);"/></g></g></svg>