<svg xmlns="http://www.w3.org/2000/svg" width="696.5777709577146" height="2134.9823369321534" viewBox="-9.63323584470038 -2124.9823369321534 696.5777709577146 2134.9823369321534"><title>Neo4j Graph Visualization</title><desc>Created using Neo4j (http://www.neo4j.com/)</desc><g class="layer links"><g class="link"><path fill="#DFE1E3" d="M 110.60502541456988 -2074.0847519092936 C 110.60502541456988 -2061.968829185286 110.69001849497843 -2061.968829185286 110.69001849497843 -2024.0847519092936 L 70.21349597643791 -2024.0847519092936 C 70.21349597643791 -2036.2006746333013 70.12850289602936 -2036.2006746333013 70.12850289602936 -2074.0847519092936 Z"/><text font-size="10" font-family="sans-serif" text-anchor="end" y="-2060.0847519092936" x="90.36676415529962">9,959 </text><text font-size="10" font-family="sans-serif" text-anchor="start" y="-2060.0847519092936" x="90.36676415529962">rows</text></g><g class="link"><path fill="#DFE1E3" d="M 92.90021097851712 -1983.1874165856368 C 92.90021097851712 -1959.7461506500365 93.08166597593384 -1959.7461506500365 93.08166597593384 -1933.1874165856368 L 88.18475849031593 -1933.1874165856368 C 88.18475849031593 -1956.6286825212371 88.00330349289922 -1956.6286825212371 88.00330349289922 -1983.1874165856368 Z"/><text font-size="10" font-family="sans-serif" text-anchor="end" y="-1969.1874165856368" x="90.45175723570817">1 </text><text font-size="10" font-family="sans-serif" text-anchor="start" y="-1969.1874165856368" x="90.45175723570817">row</text></g><g class="link"><path fill="#DFE1E3" d="M 101.0363611482695 -1903.9683275080922 C 101.0363611482695 -1885.5911778023576 101.33746199505954 -1885.5911778023576 101.33746199505954 -1853.9683275080922 L 80.5311641647703 -1853.9683275080922 C 80.5311641647703 -1872.3454772138268 80.23006331798025 -1872.3454772138268 80.23006331798025 -1903.9683275080922 Z"/><text font-size="10" font-family="sans-serif" text-anchor="end" y="-1889.9683275080922" x="90.63321223312488">89 </text><text font-size="10" font-family="sans-serif" text-anchor="start" y="-1889.9683275080922" x="90.63321223312488">rows</text></g><g class="link"><path fill="#DFE1E3" d="M 108.92412614764389 -1815.6827487027517 C 108.92412614764389 -1802.1354194028647 109.38015588636236 -1802.1354194028647 109.38015588636236 -1765.6827487027517 L 73.40052975090444 -1765.6827487027517 C 73.40052975090444 -1779.2300780026387 72.94450001218597 -1779.2300780026387 72.94450001218597 -1815.6827487027517 Z"/><text font-size="10" font-family="sans-serif" text-anchor="end" y="-1801.6827487027517" x="90.93431307991493">3,395 </text><text font-size="10" font-family="sans-serif" text-anchor="start" y="-1801.6827487027517" x="90.93431307991493">rows</text></g><g class="link"><path fill="#DFE1E3" d="M 109.38015588636236 -1747.6827487027517 C 109.38015588636236 -1734.1354194028647 110.03877779519897 -1734.1354194028647 110.03877779519897 -1697.6827487027517 L 74.05915165974106 -1697.6827487027517 C 74.05915165974106 -1711.2300780026387 73.40052975090444 -1711.2300780026387 73.40052975090444 -1747.6827487027517 Z"/><text font-size="10" font-family="sans-serif" text-anchor="end" y="-1733.6827487027517" x="91.3903428186334">3,395 </text><text font-size="10" font-family="sans-serif" text-anchor="start" y="-1733.6827487027517" x="91.3903428186334">rows</text></g><g class="link"><path fill="#DFE1E3" d="M 117.41398496208214 -1650.6116938035225 C 117.41398496208214 -1641.527188112712 118.33500248295317 -1641.527188112712 118.33500248295317 -1600.6116938035225 L 67.60496201372895 -1600.6116938035225 C 67.60496201372895 -1609.6961994943329 66.6839444928579 -1609.6961994943329 66.6839444928579 -1650.6116938035225 Z"/><text font-size="10" font-family="sans-serif" text-anchor="end" y="-1636.6116938035225" x="92.04896472747002">115,809 </text><text font-size="10" font-family="sans-serif" text-anchor="start" y="-1636.6116938035225" x="92.04896472747002">rows</text></g><g class="link"><path fill="#DFE1E3" d="M 118.33500248295317 -1582.6116938035225 C 118.33500248295317 -1573.527188112712 119.58896854308199 -1573.527188112712 119.58896854308199 -1532.6116938035225 L 68.85892807385777 -1532.6116938035225 C 68.85892807385777 -1541.6961994943329 67.60496201372894 -1541.6961994943329 67.60496201372894 -1582.6116938035225 Z"/><text font-size="10" font-family="sans-serif" text-anchor="end" y="-1568.6116938035225" x="92.96998224834105">115,809 </text><text font-size="10" font-family="sans-serif" text-anchor="start" y="-1568.6116938035225" x="92.96998224834105">rows</text></g><g class="link"><path fill="#DFE1E3" d="M 126.02866254221286 -1477.8364177079957 C 126.02866254221286 -1468.7519120171853 127.69358896833657 -1468.7519120171853 127.69358896833657 -1427.8364177079957 L 64.08416050085059 -1427.8364177079957 C 64.08416050085059 -1436.920923398806 62.41923407472689 -1436.920923398806 62.41923407472689 -1477.8364177079957 Z"/><text font-size="10" font-family="sans-serif" text-anchor="end" y="-1463.8364177079957" x="94.22394830846987">2,524,050 </text><text font-size="10" font-family="sans-serif" text-anchor="start" y="-1463.8364177079957" x="94.22394830846987">rows</text></g><g class="link"><path fill="#DFE1E3" d="M 127.69358896833656 -1373.172716043192 C 127.69358896833656 -1364.0882103523816 129.8493718039164 -1364.0882103523816 129.8493718039164 -1323.172716043192 L 66.23994333643041 -1323.172716043192 C 66.23994333643041 -1332.2572217340023 64.08416050085059 -1332.2572217340023 64.08416050085059 -1373.172716043192 Z"/><text font-size="10" font-family="sans-serif" text-anchor="end" y="-1359.172716043192" x="95.88887473459357">2,524,050 </text><text font-size="10" font-family="sans-serif" text-anchor="start" y="-1359.172716043192" x="95.88887473459357">rows</text></g><g class="link"><path fill="#DFE1E3" d="M 141.0446575701734 -1255.1727160385697 C 141.0446575701734 -1246.0882103477593 143.7671485695855 -1246.0882103477593 143.7671485695855 -1205.1727160385697 L 57.76714856958549 -1205.1727160385697 C 57.76714856958549 -1214.25722172938 55.0446575701734 -1214.25722172938 55.0446575701734 -1255.1727160385697 Z"/><text font-size="10" font-family="sans-serif" text-anchor="end" y="-1241.1727160385697" x="98.0446575701734">535,547,235 </text><text font-size="10" font-family="sans-serif" text-anchor="start" y="-1241.1727160385697" x="98.0446575701734">rows</text></g><g class="link"><path fill="#DFE1E3" d="M 140.66972386120148 -1137.1844104098486 C 140.66972386120148 -1128.0999047190382 144.0302835352261 -1128.0999047190382 144.0302835352261 -1087.1844104098486 L 64.2251329519941 -1087.1844104098486 C 64.2251329519941 -1096.268916100659 60.864573277969484 -1096.268916100659 60.864573277969484 -1137.1844104098486 Z"/><text font-size="10" font-family="sans-serif" text-anchor="end" y="-1123.1844104098486" x="100.76714856958549">121,636,689 </text><text font-size="10" font-family="sans-serif" text-anchor="start" y="-1123.1844104098486" x="100.76714856958549">rows</text></g><g class="link"><path fill="#DFE1E3" d="M 144.59236283978953 -1020.801788161706 C 144.59236283978953 -1011.7172824708955 148.56749927369393 -1011.7172824708955 148.56749927369393 -970.801788161706 L 67.6381900813351 -970.801788161706 C 67.6381900813351 -979.8862938525165 63.66305364743069 -979.8862938525165 63.66305364743069 -1020.801788161706 Z"/><text font-size="10" font-family="sans-serif" text-anchor="end" y="-1006.801788161706" x="104.1277082436101">159,177,141 </text><text font-size="10" font-family="sans-serif" text-anchor="start" y="-1006.801788161706" x="104.1277082436101">rows</text></g><g class="link"><path fill="#DFE1E3" d="M 116.2787688659047 -904.1070985535582 C 116.2787688659047 -884.3120535492658 120.03947329933982 -884.3120535492658 120.03947329933982 -854.1070985535582 L 103.68762492255944 -854.1070985535582 C 103.68762492255944 -873.9021435578506 99.92692048912433 -873.9021435578506 99.92692048912433 -904.1070985535582 Z"/><text font-size="10" font-family="sans-serif" text-anchor="end" y="-890.1070985535582" x="108.10284467751451">30 </text><text font-size="10" font-family="sans-serif" text-anchor="start" y="-890.1070985535582" x="108.10284467751451">rows</text></g><g class="link"><path fill="#DFE1E3" d="M 123.34804354759112 -823.1777663101435 C 123.34804354759112 -805.489022544155 131.80430804243534 -805.489022544155 131.80430804243534 -773.1777663101435 L 108.83531916915236 -773.1777663101435 C 108.83531916915236 -790.866510076132 100.37905467430812 -790.866510076132 100.37905467430812 -823.1777663101435 Z"/><text font-size="10" font-family="sans-serif" text-anchor="end" y="-809.1777663101435" x="111.86354911094962">150 </text><text font-size="10" font-family="sans-serif" text-anchor="start" y="-809.1777663101435" x="111.86354911094962">rows</text></g><g class="link"><path fill="#DFE1E3" d="M 131.3414669578075 -742.6991445896325 C 131.3414669578075 -724.7157470377058 216.21727898313196 -724.7157470377058 216.21727898313196 -692.6991445896325 L 194.17397227910462 -692.6991445896325 C 194.17397227910462 -710.6825421415592 109.29816025378017 -710.6825421415592 109.29816025378017 -742.6991445896325 Z"/><text font-size="10" font-family="sans-serif" text-anchor="end" y="-728.6991445896325" x="120.31981360579384">120 </text><text font-size="10" font-family="sans-serif" text-anchor="start" y="-728.6991445896325" x="120.31981360579384">rows</text></g><g class="link"><path fill="#DFE1E3" d="M 209.55883107069116 -674.6991445896325 C 209.55883107069116 -652.4768474433664 296.62837114703785 -652.4768474433664 296.62837114703785 -624.6991445896325 L 287.9019602678921 -624.6991445896325 C 287.9019602678921 -646.9214417358986 200.8324201915454 -646.9214417358986 200.8324201915454 -674.6991445896325 Z"/><text font-size="10" font-family="sans-serif" text-anchor="end" y="-660.6991445896325" x="205.19562563111828">4 </text><text font-size="10" font-family="sans-serif" text-anchor="start" y="-660.6991445896325" x="205.19562563111828">rows</text></g><g class="link"><path fill="#DFE1E3" d="M 349.69872304026035 -1069.1844104098486 C 349.69872304026035 -1022.7708021395113 350.3285675652264 -1022.7708021395113 350.3285675652264 -970.801788161706 L 341.60215668608066 -970.801788161706 C 341.60215668608066 -1017.2153964320435 340.9723121611146 -1017.2153964320435 340.9723121611146 -1069.1844104098486 Z"/><text font-size="10" font-family="sans-serif" text-anchor="end" y="-1055.1844104098486" x="345.33551760068747">4 </text><text font-size="10" font-family="sans-serif" text-anchor="start" y="-1055.1844104098486" x="345.33551760068747">rows</text></g><g class="link"><path fill="#DFE1E3" d="M 350.3285675652264 -947.3370073985517 C 350.3285675652264 -903.4997558297889 350.65940830888036 -903.4997558297889 350.65940830888036 -854.1070985535582 L 341.9329974297346 -854.1070985535582 C 341.9329974297346 -897.9443501223211 341.60215668608066 -897.9443501223211 341.60215668608066 -947.3370073985517 Z"/><text font-size="10" font-family="sans-serif" text-anchor="end" y="-933.3370073985517" x="345.96536212565354">4 </text><text font-size="10" font-family="sans-serif" text-anchor="start" y="-933.3370073985517" x="345.96536212565354">rows</text></g><g class="link"><path fill="#DFE1E3" d="M 354.3327636241948 -827.4108335212006 C 354.3327636241948 -805.4105333940668 359.37580887849356 -805.4105333940668 359.37580887849356 -773.1777663101435 L 343.3026873687189 -773.1777663101435 C 343.3026873687189 -795.1780664372775 338.25964211442016 -795.1780664372775 338.25964211442016 -827.4108335212006 Z"/><text font-size="10" font-family="sans-serif" text-anchor="end" y="-813.4108335212006" x="346.2962028693075">28 </text><text font-size="10" font-family="sans-serif" text-anchor="start" y="-813.4108335212006" x="346.2962028693075">rows</text></g><g class="link"><path fill="#DFE1E3" d="M 355.7024535631791 -746.8028675103727 C 355.7024535631791 -722.5287089037365 438.55883107069116 -722.5287089037365 438.55883107069116 -692.6991445896325 L 429.8324201915454 -692.6991445896325 C 429.8324201915454 -716.9733031962687 346.97604268403336 -716.9733031962687 346.97604268403336 -746.8028675103727 Z"/><text font-size="10" font-family="sans-serif" text-anchor="end" y="-732.8028675103727" x="351.33924812360624">4 </text><text font-size="10" font-family="sans-serif" text-anchor="start" y="-732.8028675103727" x="351.33924812360624">rows</text></g><g class="link"><path fill="#DFE1E3" d="M 591.3077405525872 -952.801788161706 C 591.3077405525872 -900.6767405038981 590.4859490254102 -900.6767405038981 590.4859490254102 -854.1070985535582 L 581.7595381462644 -854.1070985535582 C 581.7595381462644 -906.232146211366 582.5813296734415 -906.232146211366 582.5813296734415 -952.801788161706 Z"/><text font-size="10" font-family="sans-serif" text-anchor="end" y="-938.801788161706" x="586.9445351130144">4 </text><text font-size="10" font-family="sans-serif" text-anchor="start" y="-938.801788161706" x="586.9445351130144">rows</text></g><g class="link"><path fill="#DFE1E3" d="M 590.4859490254102 -830.6423177904039 C 590.4859490254102 -799.1323391965398 585.7024535631791 -799.1323391965398 585.7024535631791 -773.1777663101435 L 576.9760426840334 -773.1777663101435 C 576.9760426840334 -804.6877449040076 581.7595381462644 -804.6877449040076 581.7595381462644 -830.6423177904039 Z"/><text font-size="10" font-family="sans-serif" text-anchor="end" y="-816.6423177904039" x="586.1227435858373">4 </text><text font-size="10" font-family="sans-serif" text-anchor="start" y="-816.6423177904039" x="586.1227435858373">rows</text></g><g class="link"><path fill="#DFE1E3" d="M 582.3392481236062 -748.1311995002633 C 582.3392481236062 -719.7785522725803 440.55883107069116 -719.7785522725803 440.55883107069116 -692.6991445896325 L 438.55883107069116 -692.6991445896325 C 438.55883107069116 -721.0517918173155 580.3392481236062 -721.0517918173155 580.3392481236062 -748.1311995002633 Z"/><text font-size="10" font-family="sans-serif" text-anchor="end" y="-734.1311995002633" x="581.3392481236062">0 </text><text font-size="10" font-family="sans-serif" text-anchor="start" y="-734.1311995002633" x="581.3392481236062">rows</text></g><g class="link"><path fill="#DFE1E3" d="M 439.55883107069116 -674.6991445896325 C 439.55883107069116 -646.9214417358986 305.35478202618356 -646.9214417358986 305.35478202618356 -624.6991445896325 L 296.6283711470378 -624.6991445896325 C 296.6283711470378 -652.4768474433664 430.8324201915454 -652.4768474433664 430.8324201915454 -674.6991445896325 Z"/><text font-size="10" font-family="sans-serif" text-anchor="end" y="-660.6991445896325" x="435.1956256311183">4 </text><text font-size="10" font-family="sans-serif" text-anchor="start" y="-660.6991445896325" x="435.1956256311183">rows</text></g><g class="link"><path fill="#DFE1E3" d="M 300.9915765866107 -606.6991445896325 C 300.9915765866107 -578.9214417358986 278.4594192449529 -578.9214417358986 278.4594192449529 -556.6991445896325 L 269.73300836580717 -556.6991445896325 C 269.73300836580717 -584.4768474433664 292.2651657074649 -584.4768474433664 292.2651657074649 -606.6991445896325 Z"/><text font-size="10" font-family="sans-serif" text-anchor="end" y="-592.6991445896325" x="296.6283711470378">4 </text><text font-size="10" font-family="sans-serif" text-anchor="start" y="-592.6991445896325" x="296.6283711470378">rows</text></g><g class="link"><path fill="#DFE1E3" d="M 278.4594192449529 -530.0028795572749 C 278.4594192449529 -502.225176703541 257.8420164230163 -502.225176703541 257.8420164230163 -480.0028795572749 L 249.11560554387052 -480.0028795572749 C 249.11560554387052 -507.7805824110088 269.73300836580717 -507.7805824110088 269.73300836580717 -530.0028795572749 Z"/><text font-size="10" font-family="sans-serif" text-anchor="end" y="-516.0028795572749" x="274.09621380538005">4 </text><text font-size="10" font-family="sans-serif" text-anchor="start" y="-516.0028795572749" x="274.09621380538005">rows</text></g><g class="link"><path fill="#DFE1E3" d="M 257.8420164230162 -462.0028795572749 C 257.8420164230162 -434.225176703541 239.41723965124933 -434.225176703541 239.41723965124933 -412.0028795572749 L 230.6908287721036 -412.0028795572749 C 230.6908287721036 -439.7805824110088 249.1156055438705 -439.7805824110088 249.1156055438705 -462.0028795572749 Z"/><text font-size="10" font-family="sans-serif" text-anchor="end" y="-448.0028795572749" x="253.47881098344337">4 </text><text font-size="10" font-family="sans-serif" text-anchor="start" y="-448.0028795572749" x="253.47881098344337">rows</text></g><g class="link"><path fill="#DFE1E3" d="M 239.41723965124933 -390 C 239.41723965124933 -362.2222971462661 223.46074531986167 -362.2222971462661 223.46074531986167 -340 L 214.73433444071594 -340 C 214.73433444071594 -367.7777028537339 230.69082877210357 -367.7777028537339 230.69082877210357 -390 Z"/><text font-size="10" font-family="sans-serif" text-anchor="end" y="-376" x="235.05403421167645">4 </text><text font-size="10" font-family="sans-serif" text-anchor="start" y="-376" x="235.05403421167645">rows</text></g><g class="link"><path fill="#DFE1E3" d="M 223.46074531986167 -322 C 223.46074531986167 -294.2222971462661 210.2794700684943 -294.2222971462661 210.2794700684943 -272 L 201.55305918934857 -272 C 201.55305918934857 -299.7777028537339 214.7343344407159 -299.7777028537339 214.7343344407159 -322 Z"/><text font-size="10" font-family="sans-serif" text-anchor="end" y="-308" x="219.0975398802888">4 </text><text font-size="10" font-family="sans-serif" text-anchor="start" y="-308" x="219.0975398802888">rows</text></g><g class="link"><path fill="#DFE1E3" d="M 210.27947006849433 -254 C 210.27947006849433 -226.22229714626613 200.15508054394004 -226.22229714626613 200.15508054394004 -204 L 191.4286696647943 -204 C 191.4286696647943 -231.77770285373387 201.55305918934857 -231.77770285373387 201.55305918934857 -254 Z"/><text font-size="10" font-family="sans-serif" text-anchor="end" y="-240" x="205.91626462892145">4 </text><text font-size="10" font-family="sans-serif" text-anchor="start" y="-240" x="205.91626462892145">rows</text></g><g class="link"><path fill="#DFE1E3" d="M 200.15508054394007 -186 C 200.15508054394007 -158.22229714626613 193.30731225672852 -158.22229714626613 193.30731225672852 -136 L 184.5809013775828 -136 C 184.5809013775828 -163.77770285373387 191.4286696647943 -163.77770285373387 191.4286696647943 -186 Z"/><text font-size="10" font-family="sans-serif" text-anchor="end" y="-172" x="195.7918751043672">4 </text><text font-size="10" font-family="sans-serif" text-anchor="start" y="-172" x="195.7918751043672">rows</text></g><g class="link"><path fill="#DFE1E3" d="M 193.30731225672852 -118 C 193.30731225672852 -90.22229714626613 189.870215248224 -90.22229714626613 189.870215248224 -68 L 181.14380436907828 -68 C 181.14380436907828 -95.77770285373387 184.58090137758276 -95.77770285373387 184.58090137758276 -118 Z"/><text font-size="10" font-family="sans-serif" text-anchor="end" y="-104" x="188.94410681715564">4 </text><text font-size="10" font-family="sans-serif" text-anchor="start" y="-104" x="188.94410681715564">rows</text></g></g><g class="layer operators"><g class="operator" transform="translate(95.50701141357422,-68)"><rect class="background" fill="#ffffff" ry="4" rx="4" height="18" width="180"/><g class="header" pointer-events="all"><path class="banner" d="M 176 0 A 4 4 0 0 1 180 4 L 180 14 A 4 4 0 0 1 176 18 L 4 18 A 4 4 0 0 1 0 14 L 0 4 A 4 4 0 0 1 4 0 Z" style="fill: rgb(198, 219, 239);"/><text class="title" font-size="11" font-family="sans-serif" x="18" y="13" fill="#000000">Result</text></g><path class="cost" fill="#F25A29" d="M 176 18 A 4 4 0 0 1 176 18 L 4 18 A 4 4 0 0 1 4 18 Z"/><rect class="outline" stroke-width="1" fill="none" ry="4" rx="4" height="18" width="180" style="stroke: rgb(138, 153, 167);"/></g><g class="operator" transform="translate(98.94410705566406,-136)"><rect class="background" fill="#ffffff" ry="4" rx="4" height="18" width="180"/><g class="header" pointer-events="all"><path class="banner" d="M 176 0 A 4 4 0 0 1 180 4 L 180 14 A 4 4 0 0 1 176 18 L 4 18 A 4 4 0 0 1 0 14 L 0 4 A 4 4 0 0 1 4 0 Z" style="fill: rgb(198, 219, 239);"/><path class="expand" fill="#000000" d="M -5 -10 L 8.66 0 L -5 10 Z" transform="translate(9, 9) rotate(0) scale(0.5)"/><text class="title" font-size="11" font-family="sans-serif" x="18" y="13" fill="#000000">ProduceResults</text></g><path class="cost" fill="#F25A29" d="M 176 18 A 4 4 0 0 1 176 18 L 4 18 A 4 4 0 0 1 4 18 Z"/><rect class="outline" stroke-width="1" fill="none" ry="4" rx="4" height="18" width="180" style="stroke: rgb(138, 153, 167);"/></g><g class="operator" transform="translate(105.79187774658203,-204)"><rect class="background" fill="#ffffff" ry="4" rx="4" height="18" width="180"/><g class="header" pointer-events="all"><path class="banner" d="M 176 0 A 4 4 0 0 1 180 4 L 180 14 A 4 4 0 0 1 176 18 L 4 18 A 4 4 0 0 1 0 14 L 0 4 A 4 4 0 0 1 4 0 Z" style="fill: rgb(107, 174, 214);"/><path class="expand" fill="#FFFFFF" d="M -5 -10 L 8.66 0 L -5 10 Z" transform="translate(9, 9) rotate(0) scale(0.5)"/><text class="title" font-size="11" font-family="sans-serif" x="18" y="13" fill="#FFFFFF">Projection</text></g><path class="cost" fill="#F25A29" d="M 176 18 A 4 4 0 0 1 176 18 L 4 18 A 4 4 0 0 1 4 18 Z"/><rect class="outline" stroke-width="1" fill="none" ry="4" rx="4" height="18" width="180" style="stroke: rgb(74, 121, 149);"/></g><g class="operator" transform="translate(115.91626739501953,-272)"><rect class="background" fill="#ffffff" ry="4" rx="4" height="18" width="180"/><g class="header" pointer-events="all"><path class="banner" d="M 176 0 A 4 4 0 0 1 180 4 L 180 14 A 4 4 0 0 1 176 18 L 4 18 A 4 4 0 0 1 0 14 L 0 4 A 4 4 0 0 1 4 0 Z" style="fill: rgb(107, 174, 214);"/><path class="expand" fill="#FFFFFF" d="M -5 -10 L 8.66 0 L -5 10 Z" transform="translate(9, 9) rotate(0) scale(0.5)"/><text class="title" font-size="11" font-family="sans-serif" x="18" y="13" fill="#FFFFFF">Top</text></g><path class="cost" fill="#F25A29" d="M 176 18 A 4 4 0 0 1 176 18 L 4 18 A 4 4 0 0 1 4 18 Z"/><rect class="outline" stroke-width="1" fill="none" ry="4" rx="4" height="18" width="180" style="stroke: rgb(74, 121, 149);"/></g><g class="operator" transform="translate(129.0975341796875,-340)"><rect class="background" fill="#ffffff" ry="4" rx="4" height="18" width="180"/><g class="header" pointer-events="all"><path class="banner" d="M 176 0 A 4 4 0 0 1 180 4 L 180 14 A 4 4 0 0 1 176 18 L 4 18 A 4 4 0 0 1 0 14 L 0 4 A 4 4 0 0 1 4 0 Z" style="fill: rgb(8, 48, 107);"/><path class="expand" fill="#FFFFFF" d="M -5 -10 L 8.66 0 L -5 10 Z" transform="translate(9, 9) rotate(0) scale(0.5)"/><text class="title" font-size="11" font-family="sans-serif" x="18" y="13" fill="#FFFFFF">EagerAggregation</text></g><path class="cost" fill="#F25A29" d="M 176 18 A 4 4 0 0 1 176 18 L 4 18 A 4 4 0 0 1 4 18 Z"/><rect class="outline" stroke-width="1" fill="none" ry="4" rx="4" height="18" width="180" style="stroke: rgb(5, 33, 74);"/></g><g class="operator" transform="translate(145.0540313720703,-412.00286865234375)"><rect class="background" fill="#ffffff" ry="4" rx="4" height="22.002879557274902" width="180"/><g class="header" pointer-events="all"><path class="banner" d="M 176 0 A 4 4 0 0 1 180 4 L 180 14 A 4 4 0 0 1 180 18 L 0 18 A 4 4 0 0 1 0 14 L 0 4 A 4 4 0 0 1 4 0 Z" style="fill: rgb(107, 174, 214);"/><path class="expand" fill="#FFFFFF" d="M -5 -10 L 8.66 0 L -5 10 Z" transform="translate(9, 9) rotate(0) scale(0.5)"/><text class="title" font-size="11" font-family="sans-serif" x="18" y="13" fill="#FFFFFF">Projection</text></g><path class="cost" fill="#F25A29" d="M 0 18 L 180 18 L 180 18.002879557274902 A 4 4 0 0 1 176 22.002879557274902 L 4 22.002879557274902 A 4 4 0 0 1 0 18.002879557274902 Z"/><rect class="outline" stroke-width="1" fill="none" ry="4" rx="4" height="22.002879557274902" width="180" style="stroke: rgb(74, 121, 149);"/></g><g class="operator" transform="translate(163.4788055419922,-480.00286865234375)"><rect class="background" fill="#ffffff" ry="4" rx="4" height="18" width="180"/><g class="header" pointer-events="all"><path class="banner" d="M 176 0 A 4 4 0 0 1 180 4 L 180 14 A 4 4 0 0 1 176 18 L 4 18 A 4 4 0 0 1 0 14 L 0 4 A 4 4 0 0 1 4 0 Z" style="fill: rgb(33, 113, 181);"/><path class="expand" fill="#FFFFFF" d="M -5 -10 L 8.66 0 L -5 10 Z" transform="translate(9, 9) rotate(0) scale(0.5)"/><text class="title" font-size="11" font-family="sans-serif" x="18" y="13" fill="#FFFFFF">Filter</text></g><path class="cost" fill="#F25A29" d="M 176 18 A 4 4 0 0 1 176 18 L 4 18 A 4 4 0 0 1 4 18 Z"/><rect class="outline" stroke-width="1" fill="none" ry="4" rx="4" height="18" width="180" style="stroke: rgb(23, 79, 126);"/></g><g class="operator" transform="translate(184.09620666503906,-556.6991577148438)"><rect class="background" fill="#ffffff" ry="4" rx="4" height="26.696265032357605" width="180"/><g class="header" pointer-events="all"><path class="banner" d="M 176 0 A 4 4 0 0 1 180 4 L 180 14 A 4 4 0 0 1 180 18 L 0 18 A 4 4 0 0 1 0 14 L 0 4 A 4 4 0 0 1 4 0 Z" style="fill: rgb(8, 81, 156);"/><path class="expand" fill="#FFFFFF" d="M -5 -10 L 8.66 0 L -5 10 Z" transform="translate(9, 9) rotate(0) scale(0.5)"/><text class="title" font-size="11" font-family="sans-serif" x="18" y="13" fill="#FFFFFF">Expand(Into)</text></g><path class="cost" fill="#F25A29" d="M 0 18 L 180 18 L 180 22.696265032357605 A 4 4 0 0 1 176 26.696265032357605 L 4 26.696265032357605 A 4 4 0 0 1 0 22.696265032357605 Z"/><rect class="outline" stroke-width="1" fill="none" ry="4" rx="4" height="26.696265032357605" width="180" style="stroke: rgb(5, 56, 109);"/></g><g class="operator" transform="translate(206.6283721923828,-624.6991577148438)"><rect class="background" fill="#ffffff" ry="4" rx="4" height="18" width="180"/><g class="header" pointer-events="all"><path class="banner" d="M 176 0 A 4 4 0 0 1 180 4 L 180 14 A 4 4 0 0 1 176 18 L 4 18 A 4 4 0 0 1 0 14 L 0 4 A 4 4 0 0 1 4 0 Z" style="fill: rgb(33, 113, 181);"/><path class="expand" fill="#FFFFFF" d="M -5 -10 L 8.66 0 L -5 10 Z" transform="translate(9, 9) rotate(0) scale(0.5)"/><text class="title" font-size="11" font-family="sans-serif" x="18" y="13" fill="#FFFFFF">Apply</text></g><path class="cost" fill="#F25A29" d="M 176 18 A 4 4 0 0 1 176 18 L 4 18 A 4 4 0 0 1 4 18 Z"/><rect class="outline" stroke-width="1" fill="none" ry="4" rx="4" height="18" width="180" style="stroke: rgb(23, 79, 126);"/></g><g class="operator" transform="translate(115.19562530517578,-692.6991577148438)"><rect class="background" fill="#ffffff" ry="4" rx="4" height="18" width="180"/><g class="header" pointer-events="all"><path class="banner" d="M 176 0 A 4 4 0 0 1 180 4 L 180 14 A 4 4 0 0 1 176 18 L 4 18 A 4 4 0 0 1 0 14 L 0 4 A 4 4 0 0 1 4 0 Z" style="fill: rgb(33, 113, 181);"/><path class="expand" fill="#FFFFFF" d="M -5 -10 L 8.66 0 L -5 10 Z" transform="translate(9, 9) rotate(0) scale(0.5)"/><text class="title" font-size="11" font-family="sans-serif" x="18" y="13" fill="#FFFFFF">Distinct</text></g><path class="cost" fill="#F25A29" d="M 176 18 A 4 4 0 0 1 176 18 L 4 18 A 4 4 0 0 1 4 18 Z"/><rect class="outline" stroke-width="1" fill="none" ry="4" rx="4" height="18" width="180" style="stroke: rgb(23, 79, 126);"/></g><g class="operator" transform="translate(30.319812774658203,-773.1777954101562)"><rect class="background" fill="#ffffff" ry="4" rx="4" height="30.47862172051098" width="180"/><g class="header" pointer-events="all"><path class="banner" d="M 176 0 A 4 4 0 0 1 180 4 L 180 14 A 4 4 0 0 1 180 18 L 0 18 A 4 4 0 0 1 0 14 L 0 4 A 4 4 0 0 1 4 0 Z" style="fill: rgb(33, 113, 181);"/><path class="expand" fill="#FFFFFF" d="M -5 -10 L 8.66 0 L -5 10 Z" transform="translate(9, 9) rotate(0) scale(0.5)"/><text class="title" font-size="11" font-family="sans-serif" x="18" y="13" fill="#FFFFFF">Filter</text></g><path class="cost" fill="#F25A29" d="M 0 18 L 180 18 L 180 26.47862172051098 A 4 4 0 0 1 176 30.47862172051098 L 4 30.47862172051098 A 4 4 0 0 1 0 26.47862172051098 Z"/><rect class="outline" stroke-width="1" fill="none" ry="4" rx="4" height="30.47862172051098" width="180" style="stroke: rgb(23, 79, 126);"/></g><g class="operator" transform="translate(21.863548278808594,-854.1071166992188)"><rect class="background" fill="#ffffff" ry="4" rx="4" height="30.92933224341469" width="180"/><g class="header" pointer-events="all"><path class="banner" d="M 176 0 A 4 4 0 0 1 180 4 L 180 14 A 4 4 0 0 1 180 18 L 0 18 A 4 4 0 0 1 0 14 L 0 4 A 4 4 0 0 1 4 0 Z" style="fill: rgb(8, 81, 156);"/><path class="expand" fill="#FFFFFF" d="M -5 -10 L 8.66 0 L -5 10 Z" transform="translate(9, 9) rotate(0) scale(0.5)"/><text class="title" font-size="11" font-family="sans-serif" x="18" y="13" fill="#FFFFFF">Expand(All)</text></g><path class="cost" fill="#F25A29" d="M 0 18 L 180 18 L 180 26.92933224341469 A 4 4 0 0 1 176 30.92933224341469 L 4 30.92933224341469 A 4 4 0 0 1 0 26.92933224341469 Z"/><rect class="outline" stroke-width="1" fill="none" ry="4" rx="4" height="30.92933224341469" width="180" style="stroke: rgb(5, 56, 109);"/></g><g class="operator" transform="translate(18.10284423828125,-970.8017578125)"><rect class="background" fill="#ffffff" ry="4" rx="4" height="66.69468960814775" width="180"/><g class="header" pointer-events="all"><path class="banner" d="M 176 0 A 4 4 0 0 1 180 4 L 180 14 A 4 4 0 0 1 180 18 L 0 18 A 4 4 0 0 1 0 14 L 0 4 A 4 4 0 0 1 4 0 Z" style="fill: rgb(33, 113, 181);"/><path class="expand" fill="#FFFFFF" d="M -5 -10 L 8.66 0 L -5 10 Z" transform="translate(9, 9) rotate(0) scale(0.5)"/><text class="title" font-size="11" font-family="sans-serif" x="18" y="13" fill="#FFFFFF">Filter</text></g><path class="cost" fill="#F25A29" d="M 0 18 L 180 18 L 180 62.694689608147755 A 4 4 0 0 1 176 66.69468960814775 L 4 66.69468960814775 A 4 4 0 0 1 0 62.694689608147755 Z"/><text class="cost" font-size="10" font-family="sans-serif" fill="white" x="90" text-anchor="end" y="32">318,354,282 </text><text class="cost" font-size="10" font-family="sans-serif" fill="white" x="90" text-anchor="start" y="32">db hits</text><rect class="outline" stroke-width="1" fill="none" ry="4" rx="4" height="66.69468960814775" width="180" style="stroke: rgb(23, 79, 126);"/></g><g class="operator" transform="translate(14.127708435058594,-1087.1844482421875)"><rect class="background" fill="#ffffff" ry="4" rx="4" height="66.38262224814262" width="180"/><g class="header" pointer-events="all"><path class="banner" d="M 176 0 A 4 4 0 0 1 180 4 L 180 14 A 4 4 0 0 1 180 18 L 0 18 A 4 4 0 0 1 0 14 L 0 4 A 4 4 0 0 1 4 0 Z" style="fill: rgb(8, 81, 156);"/><path class="expand" fill="#FFFFFF" d="M -5 -10 L 8.66 0 L -5 10 Z" transform="translate(9, 9) rotate(0) scale(0.5)"/><text class="title" font-size="11" font-family="sans-serif" x="18" y="13" fill="#FFFFFF">Expand(All)</text></g><path class="cost" fill="#F25A29" d="M 0 18 L 180 18 L 180 62.382622248142624 A 4 4 0 0 1 176 66.38262224814262 L 4 66.38262224814262 A 4 4 0 0 1 0 62.382622248142624 Z"/><text class="cost" font-size="10" font-family="sans-serif" fill="white" x="90" text-anchor="end" y="32">280,813,830 </text><text class="cost" font-size="10" font-family="sans-serif" fill="white" x="90" text-anchor="start" y="32">db hits</text><rect class="outline" stroke-width="1" fill="none" ry="4" rx="4" height="66.38262224814262" width="180" style="stroke: rgb(5, 56, 109);"/></g><g class="operator" transform="translate(10.767148971557617,-1205.1727294921875)"><rect class="background" fill="#ffffff" ry="4" rx="4" height="67.98830562872112" width="180"/><g class="header" pointer-events="all"><path class="banner" d="M 176 0 A 4 4 0 0 1 180 4 L 180 14 A 4 4 0 0 1 180 18 L 0 18 A 4 4 0 0 1 0 14 L 0 4 A 4 4 0 0 1 4 0 Z" style="fill: rgb(33, 113, 181);"/><path class="expand" fill="#FFFFFF" d="M -5 -10 L 8.66 0 L -5 10 Z" transform="translate(9, 9) rotate(0) scale(0.5)"/><text class="title" font-size="11" font-family="sans-serif" x="18" y="13" fill="#FFFFFF">Filter</text></g><path class="cost" fill="#F25A29" d="M 0 17.999999999999993 L 180 17.999999999999993 L 180 63.98830562872112 A 4 4 0 0 1 176 67.98830562872112 L 4 67.98830562872112 A 4 4 0 0 1 0 63.98830562872112 Z"/><text class="cost" font-size="10" font-family="sans-serif" fill="white" x="90" text-anchor="end" y="31.999999999999993">535,547,235 </text><text class="cost" font-size="10" font-family="sans-serif" fill="white" x="90" text-anchor="start" y="31.999999999999993">db hits</text><rect class="outline" stroke-width="1" fill="none" ry="4" rx="4" height="67.98830562872112" width="180" style="stroke: rgb(23, 79, 126);"/></g><g class="operator" transform="translate(8.044657707214355,-1323.1727294921875)"><rect class="background" fill="#ffffff" ry="4" rx="4" height="68.00000000462231" width="180"/><g class="header" pointer-events="all"><path class="banner" d="M 176 0 A 4 4 0 0 1 180 4 L 180 14 A 4 4 0 0 1 180 18 L 0 18 A 4 4 0 0 1 0 14 L 0 4 A 4 4 0 0 1 4 0 Z" style="fill: rgb(8, 81, 156);"/><path class="expand" fill="#FFFFFF" d="M -5 -10 L 8.66 0 L -5 10 Z" transform="translate(9, 9) rotate(0) scale(0.5)"/><text class="title" font-size="11" font-family="sans-serif" x="18" y="13" fill="#FFFFFF">Expand(All)</text></g><path class="cost" fill="#F25A29" d="M 0 17.999999999999993 L 180 17.999999999999993 L 180 64.00000000462231 A 4 4 0 0 1 176 68.00000000462231 L 4 68.00000000462231 A 4 4 0 0 1 0 64.00000000462231 Z"/><text class="cost" font-size="10" font-family="sans-serif" fill="white" x="90" text-anchor="end" y="31.999999999999993">538,071,285 </text><text class="cost" font-size="10" font-family="sans-serif" fill="white" x="90" text-anchor="start" y="31.999999999999993">db hits</text><rect class="outline" stroke-width="1" fill="none" ry="4" rx="4" height="68.00000000462231" width="180" style="stroke: rgb(5, 56, 109);"/></g><g class="operator" transform="translate(5.8888750076293945,-1427.83642578125)"><rect class="background" fill="#ffffff" ry="4" rx="4" height="54.663701664803824" width="180"/><g class="header" pointer-events="all"><path class="banner" d="M 176 0 A 4 4 0 0 1 180 4 L 180 14 A 4 4 0 0 1 180 18 L 0 18 A 4 4 0 0 1 0 14 L 0 4 A 4 4 0 0 1 4 0 Z" style="fill: rgb(33, 113, 181);"/><path class="expand" fill="#FFFFFF" d="M -5 -10 L 8.66 0 L -5 10 Z" transform="translate(9, 9) rotate(0) scale(0.5)"/><text class="title" font-size="11" font-family="sans-serif" x="18" y="13" fill="#FFFFFF">Filter</text></g><path class="cost" fill="#F25A29" d="M 0 18 L 180 18 L 180 50.663701664803824 A 4 4 0 0 1 176 54.663701664803824 L 4 54.663701664803824 A 4 4 0 0 1 0 50.663701664803824 Z"/><text class="cost" font-size="10" font-family="sans-serif" fill="white" x="90" text-anchor="end" y="32">2,524,050 </text><text class="cost" font-size="10" font-family="sans-serif" fill="white" x="90" text-anchor="start" y="32">db hits</text><rect class="outline" stroke-width="1" fill="none" ry="4" rx="4" height="54.663701664803824" width="180" style="stroke: rgb(23, 79, 126);"/></g><g class="operator" transform="translate(4.2239484786987305,-1532.6116943359375)"><rect class="background" fill="#ffffff" ry="4" rx="4" height="54.77527609552678" width="180"/><g class="header" pointer-events="all"><path class="banner" d="M 176 0 A 4 4 0 0 1 180 4 L 180 14 A 4 4 0 0 1 180 18 L 0 18 A 4 4 0 0 1 0 14 L 0 4 A 4 4 0 0 1 4 0 Z" style="fill: rgb(8, 81, 156);"/><path class="expand" fill="#FFFFFF" d="M -5 -10 L 8.66 0 L -5 10 Z" transform="translate(9, 9) rotate(0) scale(0.5)"/><text class="title" font-size="11" font-family="sans-serif" x="18" y="13" fill="#FFFFFF">Expand(All)</text></g><path class="cost" fill="#F25A29" d="M 0 18 L 180 18 L 180 50.77527609552678 A 4 4 0 0 1 176 54.77527609552678 L 4 54.77527609552678 A 4 4 0 0 1 0 50.77527609552678 Z"/><text class="cost" font-size="10" font-family="sans-serif" fill="white" x="90" text-anchor="end" y="32">2,639,859 </text><text class="cost" font-size="10" font-family="sans-serif" fill="white" x="90" text-anchor="start" y="32">db hits</text><rect class="outline" stroke-width="1" fill="none" ry="4" rx="4" height="54.77527609552678" width="180" style="stroke: rgb(5, 56, 109);"/></g><g class="operator" transform="translate(2.969982147216797,-1600.6116943359375)"><rect class="background" fill="#ffffff" ry="4" rx="4" height="18" width="180"/><g class="header" pointer-events="all"><path class="banner" d="M 176 0 A 4 4 0 0 1 180 4 L 180 14 A 4 4 0 0 1 176 18 L 4 18 A 4 4 0 0 1 0 14 L 0 4 A 4 4 0 0 1 4 0 Z" style="fill: rgb(33, 113, 181);"/><path class="expand" fill="#FFFFFF" d="M -5 -10 L 8.66 0 L -5 10 Z" transform="translate(9, 9) rotate(0) scale(0.5)"/><text class="title" font-size="11" font-family="sans-serif" x="18" y="13" fill="#FFFFFF">Filter</text></g><path class="cost" fill="#F25A29" d="M 176 18 A 4 4 0 0 1 176 18 L 4 18 A 4 4 0 0 1 4 18 Z"/><rect class="outline" stroke-width="1" fill="none" ry="4" rx="4" height="18" width="180" style="stroke: rgb(23, 79, 126);"/></g><g class="operator" transform="translate(2.048964738845825,-1697.6827392578125)"><rect class="background" fill="#ffffff" ry="4" rx="4" height="47.07105489922924" width="180"/><g class="header" pointer-events="all"><path class="banner" d="M 176 0 A 4 4 0 0 1 180 4 L 180 14 A 4 4 0 0 1 180 18 L 0 18 A 4 4 0 0 1 0 14 L 0 4 A 4 4 0 0 1 4 0 Z" style="fill: rgb(8, 81, 156);"/><path class="expand" fill="#FFFFFF" d="M -5 -10 L 8.66 0 L -5 10 Z" transform="translate(9, 9) rotate(0) scale(0.5)"/><text class="title" font-size="11" font-family="sans-serif" x="18" y="13" fill="#FFFFFF">Expand(All)</text></g><path class="cost" fill="#F25A29" d="M 0 18 L 180 18 L 180 43.07105489922924 A 4 4 0 0 1 176 47.07105489922924 L 4 47.07105489922924 A 4 4 0 0 1 0 43.07105489922924 Z"/><text class="cost" font-size="10" font-family="sans-serif" fill="white" x="90" text-anchor="end" y="32">119,204 </text><text class="cost" font-size="10" font-family="sans-serif" fill="white" x="90" text-anchor="start" y="32">db hits</text><rect class="outline" stroke-width="1" fill="none" ry="4" rx="4" height="47.07105489922924" width="180" style="stroke: rgb(5, 56, 109);"/></g><g class="operator" transform="translate(1.3903428316116333,-1765.6827392578125)"><rect class="background" fill="#ffffff" ry="4" rx="4" height="18" width="180"/><g class="header" pointer-events="all"><path class="banner" d="M 176 0 A 4 4 0 0 1 180 4 L 180 14 A 4 4 0 0 1 176 18 L 4 18 A 4 4 0 0 1 0 14 L 0 4 A 4 4 0 0 1 4 0 Z" style="fill: rgb(33, 113, 181);"/><path class="expand" fill="#FFFFFF" d="M -5 -10 L 8.66 0 L -5 10 Z" transform="translate(9, 9) rotate(0) scale(0.5)"/><text class="title" font-size="11" font-family="sans-serif" x="18" y="13" fill="#FFFFFF">Filter</text></g><path class="cost" fill="#F25A29" d="M 176 18 A 4 4 0 0 1 176 18 L 4 18 A 4 4 0 0 1 4 18 Z"/><rect class="outline" stroke-width="1" fill="none" ry="4" rx="4" height="18" width="180" style="stroke: rgb(23, 79, 126);"/></g><g class="operator" transform="translate(0.9343131184577942,-1853.9683837890625)"><rect class="background" fill="#ffffff" ry="4" rx="4" height="38.28557880534042" width="180"/><g class="header" pointer-events="all"><path class="banner" d="M 176 0 A 4 4 0 0 1 180 4 L 180 14 A 4 4 0 0 1 180 18 L 0 18 A 4 4 0 0 1 0 14 L 0 4 A 4 4 0 0 1 4 0 Z" style="fill: rgb(8, 81, 156);"/><path class="expand" fill="#FFFFFF" d="M -5 -10 L 8.66 0 L -5 10 Z" transform="translate(9, 9) rotate(0) scale(0.5)"/><text class="title" font-size="11" font-family="sans-serif" x="18" y="13" fill="#FFFFFF">Expand(All)</text></g><path class="cost" fill="#F25A29" d="M 0 17.999999999999996 L 180 17.999999999999996 L 180 34.28557880534042 A 4 4 0 0 1 176 38.28557880534042 L 4 38.28557880534042 A 4 4 0 0 1 0 34.28557880534042 Z"/><text class="cost" font-size="10" font-family="sans-serif" fill="white" x="90" text-anchor="end" y="31.999999999999996">3,484 </text><text class="cost" font-size="10" font-family="sans-serif" fill="white" x="90" text-anchor="start" y="31.999999999999996">db hits</text><rect class="outline" stroke-width="1" fill="none" ry="4" rx="4" height="38.28557880534042" width="180" style="stroke: rgb(5, 56, 109);"/></g><g class="operator" transform="translate(0.6332122683525085,-1933.1873779296875)"><rect class="background" fill="#ffffff" ry="4" rx="4" height="29.219089077544506" width="180"/><g class="header" pointer-events="all"><path class="banner" d="M 176 0 A 4 4 0 0 1 180 4 L 180 14 A 4 4 0 0 1 180 18 L 0 18 A 4 4 0 0 1 0 14 L 0 4 A 4 4 0 0 1 4 0 Z" style="fill: rgb(8, 81, 156);"/><path class="expand" fill="#FFFFFF" d="M -5 -10 L 8.66 0 L -5 10 Z" transform="translate(9, 9) rotate(0) scale(0.5)"/><text class="title" font-size="11" font-family="sans-serif" x="18" y="13" fill="#FFFFFF">Expand(All)</text></g><path class="cost" fill="#F25A29" d="M 0 18 L 180 18 L 180 25.219089077544506 A 4 4 0 0 1 176 29.219089077544506 L 4 29.219089077544506 A 4 4 0 0 1 0 25.219089077544506 Z"/><rect class="outline" stroke-width="1" fill="none" ry="4" rx="4" height="29.219089077544506" width="180" style="stroke: rgb(5, 56, 109);"/></g><g class="operator" transform="translate(0.4517572522163391,-2024.084716796875)"><rect class="background" fill="#ffffff" ry="4" rx="4" height="40.89733532365683" width="180"/><g class="header" pointer-events="all"><path class="banner" d="M 176 0 A 4 4 0 0 1 180 4 L 180 14 A 4 4 0 0 1 180 18 L 0 18 A 4 4 0 0 1 0 14 L 0 4 A 4 4 0 0 1 4 0 Z" style="fill: rgb(33, 113, 181);"/><path class="expand" fill="#FFFFFF" d="M -5 -10 L 8.66 0 L -5 10 Z" transform="translate(9, 9) rotate(0) scale(0.5)"/><text class="title" font-size="11" font-family="sans-serif" x="18" y="13" fill="#FFFFFF">Filter</text></g><path class="cost" fill="#F25A29" d="M 0 18 L 180 18 L 180 36.89733532365683 A 4 4 0 0 1 176 40.89733532365683 L 4 40.89733532365683 A 4 4 0 0 1 0 36.89733532365683 Z"/><text class="cost" font-size="10" font-family="sans-serif" fill="white" x="90" text-anchor="end" y="32">9,959 </text><text class="cost" font-size="10" font-family="sans-serif" fill="white" x="90" text-anchor="start" y="32">db hits</text><rect class="outline" stroke-width="1" fill="none" ry="4" rx="4" height="40.89733532365683" width="180" style="stroke: rgb(23, 79, 126);"/></g><g class="operator" transform="translate(0.3667641580104828,-2114.982421875)"><rect class="background" fill="#ffffff" ry="4" rx="4" height="40.89758502285967" width="180"/><g class="header" pointer-events="all"><path class="banner" d="M 176 0 A 4 4 0 0 1 180 4 L 180 14 A 4 4 0 0 1 180 18 L 0 18 A 4 4 0 0 1 0 14 L 0 4 A 4 4 0 0 1 4 0 Z" style="fill: rgb(158, 202, 225);"/><path class="expand" fill="#000000" d="M -5 -10 L 8.66 0 L -5 10 Z" transform="translate(9, 9) rotate(0) scale(0.5)"/><text class="title" font-size="11" font-family="sans-serif" x="18" y="13" fill="#000000">NodeByLabelScan</text></g><path class="cost" fill="#F25A29" d="M 0 18 L 180 18 L 180 36.89758502285967 A 4 4 0 0 1 176 40.89758502285967 L 4 40.89758502285967 A 4 4 0 0 1 0 36.89758502285967 Z"/><text class="cost" font-size="10" font-family="sans-serif" fill="white" x="90" text-anchor="end" y="32">9,960 </text><text class="cost" font-size="10" font-family="sans-serif" fill="white" x="90" text-anchor="start" y="32">db hits</text><rect class="outline" stroke-width="1" fill="none" ry="4" rx="4" height="40.89758502285967" width="180" style="stroke: rgb(110, 141, 157);"/></g><g class="operator" transform="translate(345.19561767578125,-692.6991577148438)"><rect class="background" fill="#ffffff" ry="4" rx="4" height="18" width="180"/><g class="header" pointer-events="all"><path class="banner" d="M 176 0 A 4 4 0 0 1 180 4 L 180 14 A 4 4 0 0 1 176 18 L 4 18 A 4 4 0 0 1 0 14 L 0 4 A 4 4 0 0 1 4 0 Z" style="fill: rgb(33, 113, 181);"/><path class="expand" fill="#FFFFFF" d="M -5 -10 L 8.66 0 L -5 10 Z" transform="translate(9, 9) rotate(0) scale(0.5)"/><text class="title" font-size="11" font-family="sans-serif" x="18" y="13" fill="#FFFFFF">SemiApply</text></g><path class="cost" fill="#F25A29" d="M 176 18 A 4 4 0 0 1 176 18 L 4 18 A 4 4 0 0 1 4 18 Z"/><rect class="outline" stroke-width="1" fill="none" ry="4" rx="4" height="18" width="180" style="stroke: rgb(23, 79, 126);"/></g><g class="operator" transform="translate(261.3392333984375,-773.1777954101562)"><rect class="background" fill="#ffffff" ry="4" rx="4" height="26.374898799770744" width="180"/><g class="header" pointer-events="all"><path class="banner" d="M 176 0 A 4 4 0 0 1 180 4 L 180 14 A 4 4 0 0 1 180 18 L 0 18 A 4 4 0 0 1 0 14 L 0 4 A 4 4 0 0 1 4 0 Z" style="fill: rgb(33, 113, 181);"/><path class="expand" fill="#FFFFFF" d="M -5 -10 L 8.66 0 L -5 10 Z" transform="translate(9, 9) rotate(0) scale(0.5)"/><text class="title" font-size="11" font-family="sans-serif" x="18" y="13" fill="#FFFFFF">Filter</text></g><path class="cost" fill="#F25A29" d="M 0 18 L 180 18 L 180 22.374898799770744 A 4 4 0 0 1 176 26.374898799770744 L 4 26.374898799770744 A 4 4 0 0 1 0 22.374898799770744 Z"/><rect class="outline" stroke-width="1" fill="none" ry="4" rx="4" height="26.374898799770744" width="180" style="stroke: rgb(23, 79, 126);"/></g><g class="operator" transform="translate(256.29620361328125,-854.1071166992188)"><rect class="background" fill="#ffffff" ry="4" rx="4" height="26.696265032357605" width="180"/><g class="header" pointer-events="all"><path class="banner" d="M 176 0 A 4 4 0 0 1 180 4 L 180 14 A 4 4 0 0 1 180 18 L 0 18 A 4 4 0 0 1 0 14 L 0 4 A 4 4 0 0 1 4 0 Z" style="fill: rgb(8, 81, 156);"/><path class="expand" fill="#FFFFFF" d="M -5 -10 L 8.66 0 L -5 10 Z" transform="translate(9, 9) rotate(0) scale(0.5)"/><text class="title" font-size="11" font-family="sans-serif" x="18" y="13" fill="#FFFFFF">Expand(All)</text></g><path class="cost" fill="#F25A29" d="M 0 18 L 180 18 L 180 22.696265032357605 A 4 4 0 0 1 176 26.696265032357605 L 4 26.696265032357605 A 4 4 0 0 1 0 22.696265032357605 Z"/><rect class="outline" stroke-width="1" fill="none" ry="4" rx="4" height="26.696265032357605" width="180" style="stroke: rgb(5, 56, 109);"/></g><g class="operator" transform="translate(255.96536254882812,-970.8017578125)"><rect class="background" fill="#ffffff" ry="4" rx="4" height="23.464780763154334" width="180"/><g class="header" pointer-events="all"><path class="banner" d="M 176 0 A 4 4 0 0 1 180 4 L 180 14 A 4 4 0 0 1 180 18 L 0 18 A 4 4 0 0 1 0 14 L 0 4 A 4 4 0 0 1 4 0 Z" style="fill: rgb(33, 113, 181);"/><path class="expand" fill="#FFFFFF" d="M -5 -10 L 8.66 0 L -5 10 Z" transform="translate(9, 9) rotate(0) scale(0.5)"/><text class="title" font-size="11" font-family="sans-serif" x="18" y="13" fill="#FFFFFF">Filter</text></g><path class="cost" fill="#F25A29" d="M 0 18 L 180 18 L 180 19.464780763154334 A 4 4 0 0 1 176 23.464780763154334 L 4 23.464780763154334 A 4 4 0 0 1 0 19.464780763154334 Z"/><rect class="outline" stroke-width="1" fill="none" ry="4" rx="4" height="23.464780763154334" width="180" style="stroke: rgb(23, 79, 126);"/></g><g class="operator" transform="translate(255.33551025390625,-1087.1844482421875)"><rect class="background" fill="#ffffff" ry="4" rx="4" height="18" width="180"/><g class="header" pointer-events="all"><path class="banner" d="M 176 0 A 4 4 0 0 1 180 4 L 180 14 A 4 4 0 0 1 176 18 L 4 18 A 4 4 0 0 1 0 14 L 0 4 A 4 4 0 0 1 4 0 Z" style="fill: rgb(158, 202, 225);"/><path class="expand" fill="#000000" d="M -5 -10 L 8.66 0 L -5 10 Z" transform="translate(9, 9) rotate(0) scale(0.5)"/><text class="title" font-size="11" font-family="sans-serif" x="18" y="13" fill="#000000">Argument</text></g><path class="cost" fill="#F25A29" d="M 176 18 A 4 4 0 0 1 176 18 L 4 18 A 4 4 0 0 1 4 18 Z"/><rect class="outline" stroke-width="1" fill="none" ry="4" rx="4" height="18" width="180" style="stroke: rgb(110, 141, 157);"/></g><g class="operator" transform="translate(491.3392333984375,-773.1777954101562)"><rect class="background" fill="#ffffff" ry="4" rx="4" height="25.046566809880254" width="180"/><g class="header" pointer-events="all"><path class="banner" d="M 176 0 A 4 4 0 0 1 180 4 L 180 14 A 4 4 0 0 1 180 18 L 0 18 A 4 4 0 0 1 0 14 L 0 4 A 4 4 0 0 1 4 0 Z" style="fill: rgb(8, 81, 156);"/><path class="expand" fill="#FFFFFF" d="M -5 -10 L 8.66 0 L -5 10 Z" transform="translate(9, 9) rotate(0) scale(0.5)"/><text class="title" font-size="11" font-family="sans-serif" x="18" y="13" fill="#FFFFFF">Expand(Into)</text></g><path class="cost" fill="#F25A29" d="M 0 18 L 180 18 L 180 21.046566809880254 A 4 4 0 0 1 176 25.046566809880254 L 4 25.046566809880254 A 4 4 0 0 1 0 21.046566809880254 Z"/><rect class="outline" stroke-width="1" fill="none" ry="4" rx="4" height="25.046566809880254" width="180" style="stroke: rgb(5, 56, 109);"/></g><g class="operator" transform="translate(496.12274169921875,-854.1071166992188)"><rect class="background" fill="#ffffff" ry="4" rx="4" height="23.464780763154334" width="180"/><g class="header" pointer-events="all"><path class="banner" d="M 176 0 A 4 4 0 0 1 180 4 L 180 14 A 4 4 0 0 1 180 18 L 0 18 A 4 4 0 0 1 0 14 L 0 4 A 4 4 0 0 1 4 0 Z" style="fill: rgb(33, 113, 181);"/><path class="expand" fill="#FFFFFF" d="M -5 -10 L 8.66 0 L -5 10 Z" transform="translate(9, 9) rotate(0) scale(0.5)"/><text class="title" font-size="11" font-family="sans-serif" x="18" y="13" fill="#FFFFFF">Filter</text></g><path class="cost" fill="#F25A29" d="M 0 18 L 180 18 L 180 19.464780763154334 A 4 4 0 0 1 176 23.464780763154334 L 4 23.464780763154334 A 4 4 0 0 1 0 19.464780763154334 Z"/><rect class="outline" stroke-width="1" fill="none" ry="4" rx="4" height="23.464780763154334" width="180" style="stroke: rgb(23, 79, 126);"/></g><g class="operator" transform="translate(496.9445495605469,-970.8017578125)"><rect class="background" fill="#ffffff" ry="4" rx="4" height="18" width="180"/><g class="header" pointer-events="all"><path class="banner" d="M 176 0 A 4 4 0 0 1 180 4 L 180 14 A 4 4 0 0 1 176 18 L 4 18 A 4 4 0 0 1 0 14 L 0 4 A 4 4 0 0 1 4 0 Z" style="fill: rgb(158, 202, 225);"/><path class="expand" fill="#000000" d="M -5 -10 L 8.66 0 L -5 10 Z" transform="translate(9, 9) rotate(0) scale(0.5)"/><text class="title" font-size="11" font-family="sans-serif" x="18" y="13" fill="#000000">Argument</text></g><path class="cost" fill="#F25A29" d="M 176 18 A 4 4 0 0 1 176 18 L 4 18 A 4 4 0 0 1 4 18 Z"/><rect class="outline" stroke-width="1" fill="none" ry="4" rx="4" height="18" width="180" style="stroke: rgb(110, 141, 157);"/></g></g></svg>